<?xml version="1.0" encoding="UTF-8" standalone="no"?>
<svg
   width="205.49232"
   height="289.94446"
   version="1.1"
   id="svg10"
   sodipodi:docname="InviscidLogo.svg"
   inkscape:version="1.3 (0e150ed6c4, 2023-07-21)"
   inkscape:export-filename="InviscidPDLogo_OptimizedSVG.png"
   inkscape:export-xdpi="96"
   inkscape:export-ydpi="96"
   xmlns:inkscape="http://www.inkscape.org/namespaces/inkscape"
   xmlns:sodipodi="http://sodipodi.sourceforge.net/DTD/sodipodi-0.dtd"
   xmlns="http://www.w3.org/2000/svg"
   xmlns:svg="http://www.w3.org/2000/svg">
  <defs
     id="defs10">
    <linearGradient
       id="swatch3"
       inkscape:swatch="solid">
      <stop
         style="stop-color:#1a1a1a;stop-opacity:1;"
         offset="0"
         id="stop3" />
    </linearGradient>
  </defs>
  <sodipodi:namedview
     id="namedview10"
     pagecolor="#ffffff"
     bordercolor="#666666"
     borderopacity="1.0"
     inkscape:showpageshadow="2"
     inkscape:pageopacity="0.0"
     inkscape:pagecheckerboard="0"
     inkscape:deskcolor="#d1d1d1"
     inkscape:zoom="0.9983453"
     inkscape:cx="204.33812"
     inkscape:cy="220.86547"
     inkscape:window-width="1920"
     inkscape:window-height="1027"
     inkscape:window-x="1912"
     inkscape:window-y="-8"
     inkscape:window-maximized="1"
     inkscape:current-layer="g10" />
  <desc
     id="desc1">C:\Users\Jason Zhang\Desktop\Synchronized Folder\Inviscid Group\Branding\Working Preference\LOGO.DXF - scale = 1.000000, origin = (0.000000, 0.000000), method = manual</desc>
  <g
     transform="translate(-656.75373,-256.56724)"
     id="g10">
    <path
       shape-rendering="geometricPrecision"
       d="m 784.72383,308.42557 c -10e-4,-2.77074 -2.24804,-5.01596 -5.01866,-5.01596 -2.77061,0 -5.01704,2.24522 -5.01866,5.01596 v 132.49239 c 0,24.94561 -20.22259,45.16848 -45.16847,45.16848 -2.77074,0.002 -5.01596,2.24805 -5.01596,5.01866 0,2.77061 2.24522,5.01704 5.01596,5.01866 30.48872,0 55.20472,-24.71654 55.20472,-55.20472 z M 724.501,466.01126 c 0,-2.77074 2.24522,-5.01704 5.01596,-5.01866 11.08703,0 20.07464,-8.98788 20.07464,-20.07464 V 312.43845 c 0,-16.6304 13.48155,-30.11141 30.11142,-30.11141 2.77182,0 5.01866,2.24691 5.01866,5.01866 0,2.77182 -2.24695,5.01866 -5.01866,5.01866 -11.08703,0 -20.07464,8.98787 -20.07464,20.07463 V 440.9185 c 0,16.63041 -13.48155,30.11142 -30.11142,30.11142 -2.77074,-0.002 -5.01596,-2.24805 -5.01596,-5.01866 z m -0.002,-153.57281 c 0,-30.48872 24.71653,-55.20471 55.20471,-55.20471 2.77129,8.1e-4 5.01758,2.2474 5.01758,5.01866 0,2.77126 -2.24624,5.01812 -5.01758,5.01866 -24.94561,0 -45.16847,20.22259 -45.16847,45.16847 v 132.49239 c -0.002,2.77075 -2.24805,5.01597 -5.01866,5.01597 -2.77075,0 -5.01704,-2.24522 -5.01866,-5.01597 z"
       id="path1"
       style="fill:#ffffff;fill-opacity:1;stroke:#ffffff;stroke-width:1.333;stroke-linejoin:round;stroke-dasharray:none;stroke-opacity:1" />
    <flowRoot
       fill="#000000"
       font-family="'Agency FB'"
       font-size="40px"
       letter-spacing="0px"
       word-spacing="0px"
       style="line-height:1.25"
       xml:space="preserve"
       id="flowRoot1"><flowRegion
         font-family="'Agency FB'"
         id="flowRegion1"><rect
           x="62.221"
           y="809.73"
           width="728.16"
           height="156.39"
           id="rect1" /></flowRegion><flowPara
         id="flowPara1" /></flowRoot>
    <g
       transform="matrix(0.15207,0,0,0.15207,354.61,124.65)"
       aria-label="INVISCID "
       id="g9">
      <!--       <path
         d="m146.66 933.11h-14.473v-96.794h14.473z"
         id="path2" />
      <path
         d="m244.21 933.11h-12.679l-23.193-60.921q0.92774 4.4531 0.92774 6.9889v53.932h-14.102v-96.794h12.679l23.193 59.684q-0.92774-4.4531-0.92774-6.9889v-52.695h14.102z"
         id="path3" /> -->
      <!--       <path
         d="m340.47 836.32-18.555 96.917h-14.411l-18.493-96.917h14.534l10.824 66.364q0.1237 2.845 0.37109 8.2878-0.0618-2.8451 0.3711-8.2878l10.885-66.364z"
         id="path4" />
      <path
         d="m399.93 933.11h-14.473v-96.794h14.473z"
         id="path5" />
      <path
         d="m494.82 924.27q0 8.8444-8.7826 8.8444h-29.131q-8.7207 0-8.7207-8.8444v-23.07h14.473v19.73h17.689v-18.988l-29.007-27.461q-3.1543-3.0306-3.1543-7.7311v-21.523q0-8.9062 8.7207-8.9062h29.131q8.7826 0 8.7826 8.7826v21.647h-14.473v-18.245h-17.689v17.503l29.007 27.337q3.1543 2.9688 3.1543 7.8548z"
         id="path6" />
      <path
         d="m590.46 924.27q0 8.8444-8.8444 8.8444h-30.182q-8.597 0-8.597-8.8444v-79.043q0-8.9062 8.597-8.9062h30.182q8.8444 0 8.8444 8.9062v22.637h-14.411v-19.111h-18.74v71.93h18.74v-20.348h14.411z"
         id="path7" />
      <path
         d="m653.19 933.11h-14.473v-96.794h14.473z"
         id="path8" />
      <path
         d="m749.94 914.86q0 8.5352-5.0716 13.421-5.0716 4.8242-13.669 4.8242h-29.502v-96.794h29.502q8.597 0 13.669 4.9479 5.0716 4.8861 5.0716 13.421zm-14.534-2.4121v-55.602q0-8.1022-8.4733-8.1022h-10.762v71.93h10.391q8.8444 0 8.8444-8.2259z"
         id="path9" /> -->
    </g>
    <g
       aria-label="INVISCID "
       transform="matrix(0.33156302,0,0,0.33156302,613.25901,236.75265)"
       style="font-style:normal;font-variant:normal;font-weight:bold;font-stretch:condensed;font-size:126.667px;line-height:1.25;font-family:'Agency FB';-inkscape-font-specification:'Agency FB Bold Condensed';letter-spacing:36.5101px;word-spacing:0px;fill:#ffffff;fill-opacity:1;stroke:#ffffff;stroke-width:2.01068;stroke-linecap:square;stroke-linejoin:miter;stroke-dasharray:none;stroke-opacity:1"
       id="flowRoot13208">
      <path
         d="M 146.65885,933.10981 H 132.1862 V 836.3162 h 14.47265 z"
         style="font-style:normal;font-variant:normal;font-weight:bold;font-stretch:condensed;font-size:126.667px;font-family:'Agency FB';-inkscape-font-specification:'Agency FB Bold Condensed';letter-spacing:36.5101px;stroke:#ffffff;stroke-width:2.01068;stroke-linecap:square;stroke-linejoin:miter;stroke-dasharray:none;stroke-opacity:1;fill:#ffffff;fill-opacity:1"
         id="path4781"
         inkscape:connector-curvature="0" />
      <path
         d="m 244.21383,933.10981 h -12.67904 l -23.19336,-60.92122 q 0.92774,4.45313 0.92774,6.98893 v 53.93229 H 195.1676 V 836.3162 h 12.67904 L 231.04,896.00044 q -0.92774,-4.45313 -0.92774,-6.98893 V 836.3162 h 14.10157 z"
         style="font-style:normal;font-variant:normal;font-weight:bold;font-stretch:condensed;font-size:126.667px;font-family:'Agency FB';-inkscape-font-specification:'Agency FB Bold Condensed';letter-spacing:36.5101px;stroke:#ffffff;stroke-width:2.01068;stroke-linecap:square;stroke-linejoin:miter;stroke-dasharray:none;stroke-opacity:1;fill:#ffffff;fill-opacity:1"
         id="path4783"
         inkscape:connector-curvature="0" />
      <path
         d="m 340.46997,836.3162 -18.55469,96.91731 h -14.4108 L 289.01164,836.3162 h 14.5345 l 10.82357,66.36393 q 0.1237,2.84505 0.37109,8.28776 -0.0618,-2.84506 0.3711,-8.28776 l 10.88541,-66.36393 z"
         style="font-style:normal;font-variant:normal;font-weight:bold;font-stretch:condensed;font-size:126.667px;font-family:'Agency FB';-inkscape-font-specification:'Agency FB Bold Condensed';letter-spacing:36.5101px;stroke:#ffffff;stroke-width:2.01068;stroke-linecap:square;stroke-linejoin:miter;stroke-dasharray:none;stroke-opacity:1;fill:#ffffff;fill-opacity:1"
         id="path4785"
         inkscape:connector-curvature="0" />
      <path
         d="M 399.92599,933.10981 H 385.45333 V 836.3162 h 14.47266 z"
         style="font-style:normal;font-variant:normal;font-weight:bold;font-stretch:condensed;font-size:126.667px;font-family:'Agency FB';-inkscape-font-specification:'Agency FB Bold Condensed';letter-spacing:36.5101px;stroke:#ffffff;stroke-width:2.01068;stroke-linecap:square;stroke-linejoin:miter;stroke-dasharray:none;stroke-opacity:1;fill:#ffffff;fill-opacity:1"
         id="path4787"
         inkscape:connector-curvature="0" />
      <path
         d="m 494.82146,924.26541 q 0,8.8444 -8.78255,8.8444 h -29.13086 q -8.7207,0 -8.7207,-8.8444 V 901.19575 H 462.66 v 19.72982 h 17.6888 V 901.93794 L 451.34164,874.477 q -3.15429,-3.0306 -3.15429,-7.73112 v -21.52344 q 0,-8.90624 8.7207,-8.90624 h 29.13086 q 8.78255,0 8.78255,8.78255 v 21.64713 H 480.3488 V 848.50044 H 462.66 v 17.50325 l 29.00716,27.33724 q 3.1543,2.96875 3.1543,7.85482 z"
         style="font-style:normal;font-variant:normal;font-weight:bold;font-stretch:condensed;font-size:126.667px;font-family:'Agency FB';-inkscape-font-specification:'Agency FB Bold Condensed';letter-spacing:36.5101px;stroke:#ffffff;stroke-width:2.01068;stroke-linecap:square;stroke-linejoin:miter;stroke-dasharray:none;stroke-opacity:1;fill:#ffffff;fill-opacity:1"
         id="path4789"
         inkscape:connector-curvature="0" />
      <path
         d="m 590.45911,924.26541 q 0,8.8444 -8.84441,8.8444 h -30.18229 q -8.597,0 -8.597,-8.8444 v -79.04297 q 0,-8.90624 8.597,-8.90624 h 30.18229 q 8.84441,0 8.84441,8.90624 v 22.63672 H 576.0483 v -19.11132 h -18.74024 v 71.93033 h 18.74024 v -20.3483 h 14.41081 z"
         style="font-style:normal;font-variant:normal;font-weight:bold;font-stretch:condensed;font-size:126.667px;font-family:'Agency FB';-inkscape-font-specification:'Agency FB Bold Condensed';letter-spacing:36.5101px;stroke:#ffffff;stroke-width:2.01068;stroke-linecap:square;stroke-linejoin:miter;stroke-dasharray:none;stroke-opacity:1;fill:#ffffff;fill-opacity:1"
         id="path4791"
         inkscape:connector-curvature="0" />
      <path
         d="M 653.19312,933.10981 H 638.72047 V 836.3162 h 14.47265 z"
         style="font-style:normal;font-variant:normal;font-weight:bold;font-stretch:condensed;font-size:126.667px;font-family:'Agency FB';-inkscape-font-specification:'Agency FB Bold Condensed';letter-spacing:36.5101px;stroke:#ffffff;stroke-width:2.01068;stroke-linecap:square;stroke-linejoin:miter;stroke-dasharray:none;stroke-opacity:1;fill:#ffffff;fill-opacity:1"
         id="path4793"
         inkscape:connector-curvature="0" />
      <path
         d="m 749.94405,914.86437 q 0,8.53516 -5.07161,13.42122 -5.07162,4.82422 -13.66862,4.82422 H 701.70186 V 836.3162 h 29.50196 q 8.597,0 13.66862,4.94791 5.07161,4.88607 5.07161,13.42123 z m -14.5345,-2.41211 v -55.60221 q 0,-8.10221 -8.47331,-8.10221 h -10.76172 v 71.93033 h 10.39062 q 8.84441,0 8.84441,-8.22591 z"
         style="font-style:normal;font-variant:normal;font-weight:bold;font-stretch:condensed;font-size:126.667px;font-family:'Agency FB';-inkscape-font-specification:'Agency FB Bold Condensed';letter-spacing:36.5101px;stroke:#ffffff;stroke-width:2.01068;stroke-linecap:square;stroke-linejoin:miter;stroke-dasharray:none;stroke-opacity:1;fill:#ffffff;fill-opacity:1"
         id="path4795"
         inkscape:connector-curvature="0" />
    </g>
  </g>
</svg>
