<?xml version="1.0" encoding="UTF-8" standalone="no"?>
<svg
   width="2107.481"
   height="620"
   version="1.1"
   id="svg5006"
   sodipodi:docname="Small2.svg"
   inkscape:version="1.3 (0e150ed6c4, 2023-07-21)"
   xmlns:inkscape="http://www.inkscape.org/namespaces/inkscape"
   xmlns:sodipodi="http://sodipodi.sourceforge.net/DTD/sodipodi-0.dtd"
   xmlns="http://www.w3.org/2000/svg"
   xmlns:svg="http://www.w3.org/2000/svg"
   xmlns:rdf="http://www.w3.org/1999/02/22-rdf-syntax-ns#"
   xmlns:cc="http://creativecommons.org/ns#"
   xmlns:dc="http://purl.org/dc/elements/1.1/">
  <metadata
     id="metadata5010">
    <rdf:RDF>
      <cc:Work
         rdf:about="">
        <dc:format>image/svg+xml</dc:format>
        <dc:type
           rdf:resource="http://purl.org/dc/dcmitype/StillImage" />
      </cc:Work>
    </rdf:RDF>
  </metadata>
  <sodipodi:namedview
     pagecolor="#ffffff"
     bordercolor="#666666"
     borderopacity="1"
     objecttolerance="10"
     gridtolerance="10"
     guidetolerance="10"
     inkscape:pageopacity="0"
     inkscape:pageshadow="2"
     inkscape:window-width="1920"
     inkscape:window-height="1027"
     id="namedview5008"
     showgrid="false"
     inkscape:zoom="0.14866306"
     inkscape:cx="1449.5868"
     inkscape:cy="480.95339"
     inkscape:window-x="1912"
     inkscape:window-y="-8"
     inkscape:window-maximized="1"
     inkscape:current-layer="layer1"
     inkscape:showpageshadow="2"
     inkscape:pagecheckerboard="0"
     inkscape:deskcolor="#d1d1d1">
    <inkscape:grid
       type="xygrid"
       id="grid13218"
       originx="-84.051544"
       originy="-235.74477"
       spacingy="1"
       spacingx="1"
       units="px"
       visible="false" />
  </sodipodi:namedview>
  <desc
     id="desc4815">C:\Users\Jason Zhang\Desktop\Synchronized Folder\Inviscid Group\Branding\Working Preference\LOGO.DXF - scale = 1.000000, origin = (0.000000, 0.000000), method = manual</desc>
  <defs
     id="defs4830">
    <rect
       x="706.33124"
       y="97.507004"
       width="5753.7949"
       height="418.77667"
       id="rect2" />
    <marker
       id="DistanceX"
       orient="auto"
       refX="0"
       refY="0"
       style="overflow:visible">
      <path
         d="M 3,-3 -3,3 M 0,-5 V 5"
         style="stroke:#000000;stroke-width:0.5"
         id="path4817" />
    </marker>
    <pattern
       height="8"
       id="Hatch"
       patternUnits="userSpaceOnUse"
       width="8"
       x="0"
       y="0">
      <path
         d="M8 4 l-4,4"
         linecap="square"
         stroke="#000000"
         stroke-width="0.25"
         id="path4820" />
      <path
         d="M6 2 l-4,4"
         linecap="square"
         stroke="#000000"
         stroke-width="0.25"
         id="path4822" />
      <path
         d="M4 0 l-4,4"
         linecap="square"
         stroke="#000000"
         stroke-width="0.25"
         id="path4824" />
    </pattern>
    <symbol
       id="*Model_Space" />
    <symbol
       id="*Paper_Space" />
    <symbol
       id="*Paper_Space0" />
  </defs>
  <g
     inkscape:groupmode="layer"
     inkscape:label="0"
     id="g5004"
     transform="translate(-84.051539,-235.74477)">
    <g
       inkscape:groupmode="layer"
       id="layer1"
       inkscape:label="1"
       transform="matrix(1.8428218,0,0,1.7437438,-64.842545,-111.23418)">
      <ellipse
         style="fill:#000000;fill-opacity:1;fill-rule:nonzero;stroke:#000000;stroke-width:1.01183;stroke-linecap:round;stroke-linejoin:round;stroke-dasharray:none;stroke-dashoffset:37.7953;stroke-opacity:1;paint-order:stroke markers fill"
         id="path2"
         cx="249.01707"
         cy="376.76346"
         rx="167.71437"
         ry="177.27249" />
      <path
         style="font-weight:bold;font-size:320px;line-height:1.25;font-family:'Century Gothic';-inkscape-font-specification:'Century Gothic Bold';letter-spacing:0px;word-spacing:0px;white-space:pre;stroke:#000000;stroke-opacity:1;stroke-width:2;stroke-dasharray:none;stroke-linecap:square"
         d="m 729.45703,159.60976 h 43.4375 v 229.84375 h -43.4375 z m 92.8125,0 h 41.875 l 98.59375,151.25 v -151.25 h 43.75002 v 229.84375 h -42.03127 l -98.4375,-150.78125 v 150.78125 h -43.75 z m 219.06247,0 h 45 l 57.8125,163.28125 58.5938,-163.28125 h 45 l -82.8125,229.84375 h -42.1875 z m 238.4375,0 h 43.4375 v 229.84375 h -43.4375 z m 213.125,31.25 -32.3437,28.59375 q -17.0313,-23.75 -34.6875,-23.75 -8.5938,0 -14.0625,4.6875 -5.4688,4.53125 -5.4688,10.3125 0,5.78125 3.9063,10.9375 5.3125,6.875 32.0312,29.53125 25,20.9375 30.3125,26.40625 13.2813,13.4375 18.75,25.78125 5.625,12.1875 5.625,26.71875 0,28.28125 -19.5312,46.71875 -19.5313,18.4375 -50.9375,18.4375 -24.5313,0 -42.8125,-12.03125 -18.125,-12.03125 -31.0938,-37.8125 l 36.7188,-22.1875 q 16.5625,30.46875 38.125,30.46875 11.25,0 18.9062,-6.5625 7.6563,-6.5625 7.6563,-15.15625 0,-7.8125 -5.7813,-15.625 -5.7812,-7.8125 -25.4687,-23.90625 -37.5,-30.625 -48.4375,-47.1875 -10.9375,-16.71875 -10.9375,-33.28125 0,-23.90625 18.125,-40.9375 18.2812,-17.1875 45,-17.1875 17.1875,0 32.6562,7.96875 15.625,7.96875 33.75,29.0625 z m 257.1875,9.21875 -30.625,29.21875 q -31.25,-32.96875 -70.3125,-32.96875 -32.9687,0 -55.625,22.5 -22.5,22.5 -22.5,55.46875 0,22.96875 10,40.78125 10,17.8125 28.2813,27.96875 18.2812,10.15625 40.625,10.15625 19.0625,0 34.8437,-7.03125 15.7813,-7.1875 34.6875,-25.9375 l 29.6875,30.9375 q -25.4687,24.84375 -48.125,34.53125 -22.6562,9.53125 -51.7187,9.53125 -53.5938,0 -87.8125,-33.90625 -34.0625,-34.0625 -34.0625,-87.1875 0,-34.375 15.4687,-61.09375 15.625,-26.71875 44.5313,-42.96875 29.0625,-16.25 62.5,-16.25 28.4375,0 54.6875,12.03125 26.4062,12.03125 45.4687,34.21875 z m 35.1563,-40.46875 h 43.4375 v 229.84375 h -43.4375 z m 92.8125,0 h 51.875 q 50.1562,0 74.5312,12.5 24.375,12.34375 40.1563,40.3125 15.7812,27.96875 15.7812,65.3125 0,26.5625 -8.9062,48.90625 -8.75,22.1875 -24.375,36.875 -15.4688,14.6875 -33.5938,20.3125 -18.125,5.625 -62.8125,5.625 h -52.6562 z m 43.5937,42.1875 v 144.84375 h 20.3125 q 30,0 43.4375,-6.875 13.5938,-6.875 22.1875,-23.125 8.5938,-16.25 8.5938,-40 0,-36.5625 -20.4688,-56.71875 -18.4375,-18.125 -59.2187,-18.125 z"
         id="text2"
         transform="matrix(0.54264607,0,0,0.57347874,106.34801,225.98807)"
         aria-label="INVISCID" />
    </g>
    <path
       id="path5002"
       style="fill:#ffffff;fill-opacity:1;stroke:#ffffff;stroke-width:0.5832;stroke-linecap:round;stroke-miterlimit:4;stroke-dasharray:none;stroke-opacity:1"
       d="m 457.21215,377.30689 c -0.004,-6.7604 -5.48527,-12.23876 -12.24567,-12.23876 -6.7604,0 -12.24186,5.47836 -12.24566,12.23876 v 323.28567 c 0,60.86786 -49.34316,110.21102 -110.21103,110.21102 -6.7604,0.005 -12.23876,5.48527 -12.23876,12.24568 0,6.76039 5.47836,12.24185 12.23876,12.24566 74.39406,-1e-5 134.70235,-60.30831 134.70236,-134.70236 z M 310.27103,761.82091 c 0,-6.7604 5.47836,-12.24185 12.23876,-12.24567 27.05239,0 48.98268,-21.93029 48.98268,-48.98268 V 387.10343 c 0,-40.57858 32.89543,-73.47402 73.47401,-73.47402 6.7631,0 12.24566,5.48257 12.24566,12.24567 0,6.7631 -5.48256,12.24567 -12.24566,12.24567 -27.05239,0 -48.98267,21.93029 -48.98267,48.98268 v 313.48913 c -1e-5,40.57858 -32.89544,73.47401 -73.47402,73.47401 -6.7604,-0.005 -12.23876,-5.48527 -12.23876,-12.24566 z m -0.007,-374.71748 c 0,-74.39407 60.3083,-134.70237 134.70236,-134.70237 6.762,0.002 12.24285,5.48368 12.24285,12.24567 0,6.762 -5.48085,12.24411 -12.24285,12.24567 -60.86787,0 -110.21102,49.34315 -110.21102,110.21103 V 710.3891 c -0.005,6.7604 -5.48527,12.23875 -12.24568,12.23875 -6.76039,0 -12.24185,-5.47835 -12.24566,-12.23875 z"
       inkscape:connector-curvature="0"
       sodipodi:nodetypes="cccscccsccccsccccsccscccscccs" />
    <flowRoot
       xml:space="preserve"
       id="flowRoot13200"
       style="font-style:normal;font-variant:normal;font-weight:normal;font-stretch:normal;font-size:40px;line-height:1.25;font-family:'Agency FB';-inkscape-font-specification:'Agency FB';letter-spacing:0px;word-spacing:0px;fill:#000000;fill-opacity:1;stroke:none"><flowRegion
         id="flowRegion13202"
         style="font-style:normal;font-variant:normal;font-weight:normal;font-stretch:normal;font-family:'Agency FB';-inkscape-font-specification:'Agency FB'"><rect
           id="rect13204"
           width="728.15668"
           height="156.39394"
           x="62.221241"
           y="809.73181"
           style="-inkscape-font-specification:'Agency FB';font-family:'Agency FB';font-weight:normal;font-style:normal;font-stretch:normal;font-variant:normal;" /></flowRegion><flowPara
         id="flowPara13206" /></flowRoot>
  </g>
</svg>
