<?xml version="1.0" encoding="UTF-8" standalone="no"?>
<svg
   width="2967.2456"
   height="650.25397"
   version="1.1"
   id="svg5006"
   sodipodi:docname="Small2.svg"
   inkscape:version="1.3 (0e150ed6c4, 2023-07-21)"
   xmlns:inkscape="http://www.inkscape.org/namespaces/inkscape"
   xmlns:sodipodi="http://sodipodi.sourceforge.net/DTD/sodipodi-0.dtd"
   xmlns="http://www.w3.org/2000/svg"
   xmlns:svg="http://www.w3.org/2000/svg"
   xmlns:rdf="http://www.w3.org/1999/02/22-rdf-syntax-ns#"
   xmlns:cc="http://creativecommons.org/ns#"
   xmlns:dc="http://purl.org/dc/elements/1.1/">
  <metadata
     id="metadata5010">
    <rdf:RDF>
      <cc:Work
         rdf:about="">
        <dc:format>image/svg+xml</dc:format>
        <dc:type
           rdf:resource="http://purl.org/dc/dcmitype/StillImage" />
      </cc:Work>
    </rdf:RDF>
  </metadata>
  <sodipodi:namedview
     pagecolor="#ffffff"
     bordercolor="#666666"
     borderopacity="1"
     objecttolerance="10"
     gridtolerance="10"
     guidetolerance="10"
     inkscape:pageopacity="0"
     inkscape:pageshadow="2"
     inkscape:window-width="1920"
     inkscape:window-height="1027"
     id="namedview5008"
     showgrid="false"
     inkscape:zoom="0.21024131"
     inkscape:cx="1191.488"
     inkscape:cy="558.8816"
     inkscape:window-x="1912"
     inkscape:window-y="-8"
     inkscape:window-maximized="1"
     inkscape:current-layer="g5004"
     inkscape:showpageshadow="2"
     inkscape:pagecheckerboard="0"
     inkscape:deskcolor="#d1d1d1">
    <inkscape:grid
       type="xygrid"
       id="grid13218"
       originx="-80.64798"
       originy="-142.88977"
       spacingy="1"
       spacingx="1"
       units="px"
       visible="false" />
  </sodipodi:namedview>
  <desc
     id="desc4815">C:\Users\Jason Zhang\Desktop\Synchronized Folder\Inviscid Group\Branding\Working Preference\LOGO.DXF - scale = 1.000000, origin = (0.000000, 0.000000), method = manual</desc>
  <defs
     id="defs4830">
    <rect
       x="850.91754"
       y="158.07559"
       width="1695.1084"
       height="517.94983"
       id="rect11" />
    <rect
       x="1133.4355"
       y="215.25188"
       width="1584.1191"
       height="403.59726"
       id="rect10" />
    <rect
       x="800.4679"
       y="131.16911"
       width="1829.6409"
       height="487.68002"
       id="rect9" />
    <rect
       x="751.5174"
       y="142.69318"
       width="784.8125"
       height="711.08765"
       id="rect4" />
    <rect
       x="728.15668"
       y="186.66373"
       width="475.90842"
       height="544.85626"
       id="rect2" />
    <marker
       id="DistanceX"
       orient="auto"
       refX="0"
       refY="0"
       style="overflow:visible"
       viewBox="0 0 6.3535534 10"
       markerWidth="6.3535533"
       markerHeight="10"
       preserveAspectRatio="xMidYMid">
      <path
         d="M 3,-3 -3,3 M 0,-5 V 5"
         style="stroke:#000000;stroke-width:0.5"
         id="path4817" />
    </marker>
    <pattern
       height="8"
       id="Hatch"
       patternUnits="userSpaceOnUse"
       width="8"
       x="0"
       y="0">
      <path
         d="M8 4 l-4,4"
         linecap="square"
         stroke="#000000"
         stroke-width="0.25"
         id="path4820" />
      <path
         d="M6 2 l-4,4"
         linecap="square"
         stroke="#000000"
         stroke-width="0.25"
         id="path4822" />
      <path
         d="M4 0 l-4,4"
         linecap="square"
         stroke="#000000"
         stroke-width="0.25"
         id="path4824" />
    </pattern>
    <symbol
       id="*Model_Space" />
    <symbol
       id="*Paper_Space" />
    <symbol
       id="*Paper_Space0" />
  </defs>
  <g
     inkscape:groupmode="layer"
     inkscape:label="0"
     id="g5004"
     transform="translate(-80.64798,-142.88977)">
    <ellipse
       style="fill:#e70000;fill-opacity:0.720165;stroke:#000000;stroke-width:1;stroke-linecap:square;stroke-linejoin:round;stroke-dasharray:none;stroke-dashoffset:37.7953;paint-order:stroke markers fill"
       id="path1"
       cx="406.96405"
       cy="468.01675"
       rx="325.81607"
       ry="324.62698" />
    <path
       id="path5002"
       style="fill:#ffffff;fill-opacity:1;stroke:none;stroke-width:0.5832;stroke-linecap:round;stroke-miterlimit:4;stroke-dasharray:none"
       d="m 474.0287,294.90578 c -0.004,-6.7604 -5.48527,-12.23876 -12.24567,-12.23876 -6.7604,0 -12.24186,5.47836 -12.24566,12.23876 v 323.28567 c 0,60.86786 -49.34316,110.21102 -110.21103,110.21102 -6.7604,0.005 -12.23876,5.48527 -12.23876,12.24568 0,6.76039 5.47836,12.24185 12.23876,12.24566 74.39406,-10e-6 134.70235,-60.30831 134.70236,-134.70236 z M 327.08758,679.4198 c 0,-6.7604 5.47836,-12.24185 12.23876,-12.24567 27.05239,0 48.98268,-21.93029 48.98268,-48.98268 V 304.70232 c 0,-40.57858 32.89543,-73.47402 73.47401,-73.47402 6.7631,0 12.24566,5.48257 12.24566,12.24567 0,6.7631 -5.48256,12.24567 -12.24566,12.24567 -27.05239,0 -48.98267,21.93029 -48.98267,48.98268 v 313.48913 c -1e-5,40.57858 -32.89544,73.47401 -73.47402,73.47401 -6.7604,-0.005 -12.23876,-5.48527 -12.23876,-12.24566 z m -0.007,-374.71748 c 0,-74.39407 60.3083,-134.70237 134.70236,-134.70237 6.762,0.002 12.24285,5.48368 12.24285,12.24567 0,6.762 -5.48085,12.24411 -12.24285,12.24567 -60.86787,0 -110.21102,49.34315 -110.21102,110.21103 v 323.28567 c -0.005,6.7604 -5.48527,12.23875 -12.24568,12.23875 -6.76039,0 -12.24185,-5.47835 -12.24566,-12.23875 z"
       inkscape:connector-curvature="0"
       sodipodi:nodetypes="cccscccsccccsccccsccscccscccs" />
    <path
       style="font-weight:bold;font-stretch:condensed;font-size:192px;line-height:1.25;font-family:'Agency FB';-inkscape-font-specification:'Agency FB Bold Condensed';letter-spacing:30px;word-spacing:0px;fill:#000000;fill-opacity:1;stroke:#000000;stroke-width:0.945474;stroke-dasharray:none;stroke-opacity:1"
       d="M 904.02426,638.00957 H 840.16453 V 311.95692 h 63.85973 z m 356.14114,0 h -55.9457 L 1101.8805,432.79432 q 4.0934,15.00051 4.0934,23.54246 v 181.67279 h -62.2223 V 311.95692 h 55.9457 l 102.3392,201.04843 q -4.0934,-15.0005 -4.0934,-23.54245 V 311.95692 h 62.2223 z m 351.2288,-326.05265 -81.8715,326.46932 h -63.5868 l -81.5987,-326.46932 h 64.1327 l 47.7584,223.54919 q 0.5459,9.58366 1.6375,27.91761 -0.2738,-9.58365 1.6374,-27.91761 l 48.0312,-223.54919 z m 188.3045,326.05265 h -63.8598 V 311.95692 h 63.8598 z m 344.4062,-29.79267 q 0,29.79267 -38.7524,29.79267 h -128.5382 q -38.4797,0 -38.4797,-29.79267 v -77.71096 h 63.8597 v 66.46058 h 78.0508 v -63.96049 l -127.9922,-92.50312 q -13.9183,-10.20868 -13.9183,-26.04255 v -72.50244 q 0,-30.001 38.4797,-30.001 h 128.5382 q 38.7524,0 38.7524,29.58432 v 72.91912 h -63.8598 v -61.4604 h -78.0508 v 58.96033 l 127.9927,92.08642 q 13.9179,10.00034 13.9179,26.45923 z m 348.227,0 q 0,29.79267 -39.0254,29.79267 h -133.1777 q -37.934,0 -37.934,-29.79267 V 341.95792 q 0,-30.001 37.934,-30.001 h 133.1777 q 39.0254,0 39.0254,30.001 v 76.25258 h -63.5869 v -64.37718 h -82.6903 v 242.29983 h 82.6903 v -68.54397 h 63.5869 z m 202.4955,29.79267 h -63.8598 V 311.95692 h 63.8598 z m 352.5934,-61.46041 q 0,28.75098 -22.3783,45.20986 -22.3782,16.25055 -60.3118,16.25055 H 2834.5548 V 311.95692 h 130.1759 q 37.9336,0 60.3118,16.66722 22.3783,16.45888 22.3783,45.20986 z m -64.1325,-8.12528 V 381.12591 q 0,-27.29259 -37.3883,-27.29259 h -47.4853 v 242.29983 h 45.8479 q 39.0257,0 39.0257,-27.70927 z"
       id="text12"
       aria-label="INVISCID" />
  </g>
</svg>
