<?xml version="1.0" encoding="UTF-8" standalone="no"?>
<svg
   width="3010.0537"
   height="650.25397"
   version="1.1"
   id="svg5006"
   sodipodi:docname="Small2.svg"
   inkscape:version="1.3 (0e150ed6c4, 2023-07-21)"
   xmlns:inkscape="http://www.inkscape.org/namespaces/inkscape"
   xmlns:sodipodi="http://sodipodi.sourceforge.net/DTD/sodipodi-0.dtd"
   xmlns="http://www.w3.org/2000/svg"
   xmlns:svg="http://www.w3.org/2000/svg"
   xmlns:rdf="http://www.w3.org/1999/02/22-rdf-syntax-ns#"
   xmlns:cc="http://creativecommons.org/ns#"
   xmlns:dc="http://purl.org/dc/elements/1.1/">
  <metadata
     id="metadata5010">
    <rdf:RDF>
      <cc:Work
         rdf:about="">
        <dc:format>image/svg+xml</dc:format>
        <dc:type
           rdf:resource="http://purl.org/dc/dcmitype/StillImage" />
      </cc:Work>
    </rdf:RDF>
  </metadata>
  <sodipodi:namedview
     pagecolor="#ffffff"
     bordercolor="#666666"
     borderopacity="1"
     objecttolerance="10"
     gridtolerance="10"
     guidetolerance="10"
     inkscape:pageopacity="0"
     inkscape:pageshadow="2"
     inkscape:window-width="1920"
     inkscape:window-height="1027"
     id="namedview5008"
     showgrid="false"
     inkscape:zoom="0.21024131"
     inkscape:cx="1189.1098"
     inkscape:cy="178.36647"
     inkscape:window-x="1912"
     inkscape:window-y="-8"
     inkscape:window-maximized="1"
     inkscape:current-layer="g5004"
     inkscape:showpageshadow="2"
     inkscape:pagecheckerboard="0"
     inkscape:deskcolor="#d1d1d1">
    <inkscape:grid
       type="xygrid"
       id="grid13218"
       originx="-80.647979"
       originy="-142.88977"
       spacingy="1"
       spacingx="1"
       units="px"
       visible="false" />
  </sodipodi:namedview>
  <desc
     id="desc4815">C:\Users\Jason Zhang\Desktop\Synchronized Folder\Inviscid Group\Branding\Working Preference\LOGO.DXF - scale = 1.000000, origin = (0.000000, 0.000000), method = manual</desc>
  <defs
     id="defs4830">
    <rect
       x="850.91754"
       y="158.07559"
       width="1695.1084"
       height="517.94983"
       id="rect11" />
    <rect
       x="1133.4355"
       y="215.25188"
       width="1584.1191"
       height="403.59726"
       id="rect10" />
    <rect
       x="800.4679"
       y="131.16911"
       width="1829.6409"
       height="487.68002"
       id="rect9" />
    <rect
       x="751.5174"
       y="142.69318"
       width="784.8125"
       height="711.08765"
       id="rect4" />
    <rect
       x="728.15668"
       y="186.66373"
       width="475.90842"
       height="544.85626"
       id="rect2" />
    <marker
       id="DistanceX"
       orient="auto"
       refX="0"
       refY="0"
       style="overflow:visible"
       viewBox="0 0 6.3535534 10"
       markerWidth="6.3535533"
       markerHeight="10"
       preserveAspectRatio="xMidYMid">
      <path
         d="M 3,-3 -3,3 M 0,-5 V 5"
         style="stroke:#000000;stroke-width:0.5"
         id="path4817" />
    </marker>
    <pattern
       height="8"
       id="Hatch"
       patternUnits="userSpaceOnUse"
       width="8"
       x="0"
       y="0">
      <path
         d="M8 4 l-4,4"
         linecap="square"
         stroke="#000000"
         stroke-width="0.25"
         id="path4820" />
      <path
         d="M6 2 l-4,4"
         linecap="square"
         stroke="#000000"
         stroke-width="0.25"
         id="path4822" />
      <path
         d="M4 0 l-4,4"
         linecap="square"
         stroke="#000000"
         stroke-width="0.25"
         id="path4824" />
    </pattern>
    <symbol
       id="*Model_Space" />
    <symbol
       id="*Paper_Space" />
    <symbol
       id="*Paper_Space0" />
  </defs>
  <g
     inkscape:groupmode="layer"
     inkscape:label="0"
     id="g5004"
     transform="translate(-80.64798,-142.88977)">
    <ellipse
       style="fill:#000000;fill-opacity:1;stroke:#000000;stroke-width:1;stroke-linecap:square;stroke-linejoin:round;stroke-dasharray:none;stroke-dashoffset:37.7953;paint-order:stroke markers fill"
       id="path1"
       cx="406.96405"
       cy="468.01675"
       rx="325.81607"
       ry="324.62698" />
    <path
       id="path5002"
       style="fill:#ffffff;fill-opacity:1;stroke:none;stroke-width:0.5832;stroke-linecap:round;stroke-miterlimit:4;stroke-dasharray:none"
       d="m 474.0287,294.90578 c -0.004,-6.7604 -5.48527,-12.23876 -12.24567,-12.23876 -6.7604,0 -12.24186,5.47836 -12.24566,12.23876 v 323.28567 c 0,60.86786 -49.34316,110.21102 -110.21103,110.21102 -6.7604,0.005 -12.23876,5.48527 -12.23876,12.24568 0,6.76039 5.47836,12.24185 12.23876,12.24566 74.39406,-10e-6 134.70235,-60.30831 134.70236,-134.70236 z M 327.08758,679.4198 c 0,-6.7604 5.47836,-12.24185 12.23876,-12.24567 27.05239,0 48.98268,-21.93029 48.98268,-48.98268 V 304.70232 c 0,-40.57858 32.89543,-73.47402 73.47401,-73.47402 6.7631,0 12.24566,5.48257 12.24566,12.24567 0,6.7631 -5.48256,12.24567 -12.24566,12.24567 -27.05239,0 -48.98267,21.93029 -48.98267,48.98268 v 313.48913 c -1e-5,40.57858 -32.89544,73.47401 -73.47402,73.47401 -6.7604,-0.005 -12.23876,-5.48527 -12.23876,-12.24566 z m -0.007,-374.71748 c 0,-74.39407 60.3083,-134.70237 134.70236,-134.70237 6.762,0.002 12.24285,5.48368 12.24285,12.24567 0,6.762 -5.48085,12.24411 -12.24285,12.24567 -60.86787,0 -110.21102,49.34315 -110.21102,110.21103 v 323.28567 c -0.005,6.7604 -5.48527,12.23875 -12.24568,12.23875 -6.76039,0 -12.24185,-5.47835 -12.24566,-12.23875 z"
       inkscape:connector-curvature="0"
       sodipodi:nodetypes="cccscccsccccsccccsccscccscccs" />
    <path
       style="font-weight:bold;font-stretch:condensed;font-size:192px;line-height:1.25;font-family:'Agency FB';-inkscape-font-specification:'Agency FB Bold Condensed';letter-spacing:30px;word-spacing:0px;fill:#494949;fill-opacity:1;stroke:#000000;stroke-width:0.836002;stroke-dasharray:none;stroke-opacity:1"
       d="M 946.78064,604.86015 H 882.91775 V 349.9537 h 63.86289 z m 356.15886,0 H 1246.991 L 1144.6467,444.42382 q 4.0936,11.72733 4.0936,18.40539 V 604.86015 H 1086.515 V 349.9537 h 55.9485 l 102.3442,157.17874 q -4.0936,-11.72733 -4.0936,-18.40539 V 349.9537 h 62.2254 z m 351.2462,-254.90645 -81.8756,255.2322 h -63.5899 l -81.6027,-255.2322 h 64.1359 l 47.7607,174.76972 q 0.5459,7.49247 1.6376,21.82586 -0.2738,-7.49245 1.6375,-21.82586 l 48.0335,-174.76972 z m 188.3138,254.90645 h -63.8629 V 349.9537 h 63.8629 z m 344.4233,-23.29177 q 0,23.29177 -38.7543,23.29177 H 2019.624 q -38.4817,0 -38.4817,-23.29177 v -60.75407 h 63.8629 v 51.95858 h 78.0546 v -50.00402 l -127.9985,-72.31851 q -13.919,-7.9811 -13.919,-20.35994 v -56.68208 q 0,-23.45464 38.4817,-23.45464 h 128.5445 q 38.7543,0 38.7543,23.12889 v 57.00783 h -63.863 v -48.04946 h -78.0546 v 46.09491 l 127.999,71.99274 q 13.9186,7.81823 13.9186,20.6857 z m 348.2443,0 q 0,23.29177 -39.0273,23.29177 h -133.1843 q -37.936,0 -37.936,-23.29177 V 373.40834 q 0,-23.45464 37.936,-23.45464 h 133.1843 q 39.0273,0 39.0273,23.45464 v 59.61392 h -63.5901 v -50.32978 h -82.6944 v 189.42889 h 82.6944 V 518.534 h 63.5901 z m 202.5056,23.29177 h -63.8631 V 349.9537 h 63.8631 z m 352.6109,-48.04946 q 0,22.47739 -22.3794,35.34487 -22.3793,12.70459 -60.3148,12.70459 H 2877.407 V 349.9537 h 130.1824 q 37.9355,0 60.3148,13.03036 22.3794,12.86748 22.3794,35.34485 z m -64.1357,-6.3523 V 404.0297 q 0,-21.33722 -37.3902,-21.33722 H 2941.27 v 189.42889 h 45.8502 q 39.0277,0 39.0277,-21.66298 z"
       id="text12"
       aria-label="INVISCID" />
  </g>
</svg>
