<?xml version="1.0" encoding="UTF-8" standalone="no"?>
<svg
   width="1944.3506"
   height="649.25397"
   version="1.1"
   id="svg5006"
   sodipodi:docname="Small3.svg"
   inkscape:version="1.3 (0e150ed6c4, 2023-07-21)"
   xmlns:inkscape="http://www.inkscape.org/namespaces/inkscape"
   xmlns:sodipodi="http://sodipodi.sourceforge.net/DTD/sodipodi-0.dtd"
   xmlns="http://www.w3.org/2000/svg"
   xmlns:svg="http://www.w3.org/2000/svg"
   xmlns:rdf="http://www.w3.org/1999/02/22-rdf-syntax-ns#"
   xmlns:cc="http://creativecommons.org/ns#"
   xmlns:dc="http://purl.org/dc/elements/1.1/">
  <metadata
     id="metadata5010">
    <rdf:RDF>
      <cc:Work
         rdf:about="">
        <dc:format>image/svg+xml</dc:format>
        <dc:type
           rdf:resource="http://purl.org/dc/dcmitype/StillImage" />
      </cc:Work>
    </rdf:RDF>
  </metadata>
  <sodipodi:namedview
     pagecolor="#ffffff"
     bordercolor="#666666"
     borderopacity="1"
     objecttolerance="10"
     gridtolerance="10"
     guidetolerance="10"
     inkscape:pageopacity="0"
     inkscape:pageshadow="2"
     inkscape:window-width="1920"
     inkscape:window-height="1027"
     id="namedview5008"
     showgrid="false"
     inkscape:zoom="0.21024131"
     inkscape:cx="884.69768"
     inkscape:cy="-59.45549"
     inkscape:window-x="1912"
     inkscape:window-y="-8"
     inkscape:window-maximized="1"
     inkscape:current-layer="g5004"
     inkscape:showpageshadow="2"
     inkscape:pagecheckerboard="0"
     inkscape:deskcolor="#d1d1d1">
    <inkscape:grid
       type="xygrid"
       id="grid13218"
       originx="-81.147979"
       originy="-143.38977"
       spacingy="1"
       spacingx="1"
       units="px"
       visible="false" />
  </sodipodi:namedview>
  <desc
     id="desc4815">C:\Users\Jason Zhang\Desktop\Synchronized Folder\Inviscid Group\Branding\Working Preference\LOGO.DXF - scale = 1.000000, origin = (0.000000, 0.000000), method = manual</desc>
  <defs
     id="defs4830">
    <rect
       x="827.62042"
       y="71.346588"
       width="1953.0951"
       height="531.76538"
       id="rect1" />
    <rect
       x="850.91754"
       y="158.07559"
       width="1695.1084"
       height="517.94983"
       id="rect11" />
    <rect
       x="1133.4355"
       y="215.25188"
       width="1584.1191"
       height="403.59726"
       id="rect10" />
    <rect
       x="800.4679"
       y="131.16911"
       width="1829.6409"
       height="487.68002"
       id="rect9" />
    <rect
       x="751.5174"
       y="142.69318"
       width="784.8125"
       height="711.08765"
       id="rect4" />
    <rect
       x="728.15668"
       y="186.66373"
       width="475.90842"
       height="544.85626"
       id="rect2" />
    <marker
       id="DistanceX"
       orient="auto"
       refX="0"
       refY="0"
       style="overflow:visible"
       viewBox="0 0 6.3535534 10"
       markerWidth="6.3535533"
       markerHeight="10"
       preserveAspectRatio="xMidYMid">
      <path
         d="M 3,-3 -3,3 M 0,-5 V 5"
         style="stroke:#000000;stroke-width:0.5"
         id="path4817" />
    </marker>
    <pattern
       height="8"
       id="Hatch"
       patternUnits="userSpaceOnUse"
       width="8"
       x="0"
       y="0">
      <path
         d="M8 4 l-4,4"
         linecap="square"
         stroke="#000000"
         stroke-width="0.25"
         id="path4820" />
      <path
         d="M6 2 l-4,4"
         linecap="square"
         stroke="#000000"
         stroke-width="0.25"
         id="path4822" />
      <path
         d="M4 0 l-4,4"
         linecap="square"
         stroke="#000000"
         stroke-width="0.25"
         id="path4824" />
    </pattern>
    <symbol
       id="*Model_Space" />
    <symbol
       id="*Paper_Space" />
    <symbol
       id="*Paper_Space0" />
    <filter
       inkscape:collect="always"
       style="color-interpolation-filters:sRGB"
       id="filter5"
       x="-0.0013964894"
       y="-0.0058095385"
       width="1.002793"
       height="1.0116191">
      <feGaussianBlur
         inkscape:collect="always"
         stdDeviation="0.3556073"
         id="feGaussianBlur5" />
    </filter>
  </defs>
  <g
     inkscape:groupmode="layer"
     inkscape:label="0"
     id="g5004"
     transform="translate(-81.147979,-143.38977)">
    <ellipse
       style="mix-blend-mode:normal;fill:#ff0606;fill-opacity:0.72016501;stroke:#e45121;stroke-width:0;stroke-linecap:square;stroke-linejoin:round;stroke-dasharray:none;stroke-dashoffset:0;stroke-opacity:0.72156864;paint-order:stroke markers fill"
       id="path1"
       cx="406.96405"
       cy="468.01675"
       rx="325.81607"
       ry="324.62698" />
    <path
       id="path5002"
       style="fill:#ffffff;fill-opacity:1;stroke:none;stroke-width:0.5832;stroke-linecap:round;stroke-miterlimit:4;stroke-dasharray:none"
       d="m 474.0287,294.90578 c -0.004,-6.7604 -5.48527,-12.23876 -12.24567,-12.23876 -6.7604,0 -12.24186,5.47836 -12.24566,12.23876 v 323.28567 c 0,60.86786 -49.34316,110.21102 -110.21103,110.21102 -6.7604,0.005 -12.23876,5.48527 -12.23876,12.24568 0,6.76039 5.47836,12.24185 12.23876,12.24566 74.39406,-10e-6 134.70235,-60.30831 134.70236,-134.70236 z M 327.08758,679.4198 c 0,-6.7604 5.47836,-12.24185 12.23876,-12.24567 27.05239,0 48.98268,-21.93029 48.98268,-48.98268 V 304.70232 c 0,-40.57858 32.89543,-73.47402 73.47401,-73.47402 6.7631,0 12.24566,5.48257 12.24566,12.24567 0,6.7631 -5.48256,12.24567 -12.24566,12.24567 -27.05239,0 -48.98267,21.93029 -48.98267,48.98268 v 313.48913 c -1e-5,40.57858 -32.89544,73.47401 -73.47402,73.47401 -6.7604,-0.005 -12.23876,-5.48527 -12.23876,-12.24566 z m -0.007,-374.71748 c 0,-74.39407 60.3083,-134.70237 134.70236,-134.70237 6.762,0.002 12.24285,5.48368 12.24285,12.24567 0,6.762 -5.48085,12.24411 -12.24285,12.24567 -60.86787,0 -110.21102,49.34315 -110.21102,110.21103 v 323.28567 c -0.005,6.7604 -5.48527,12.23875 -12.24568,12.23875 -6.76039,0 -12.24185,-5.47835 -12.24566,-12.23875 z"
       inkscape:connector-curvature="0"
       sodipodi:nodetypes="cccscccsccccsccccsccscccscccs" />
    <g
       id="text1"
       style="font-size:192px;line-height:0.75;font-family:Stencil;-inkscape-font-specification:Stencil;letter-spacing:8.98499px;word-spacing:0px;white-space:pre"
       transform="matrix(1.946885,0,0,1.2174162,-823.70079,165.49431)"
       aria-label="INVISCID&#10;PRODUCT DEVELOPMENT">
      <path
         style="font-weight:bold;font-stretch:condensed;font-family:'agency fb';-inkscape-font-specification:'agency fb Bold Condensed';mix-blend-mode:normal;filter:url(#filter5)"
         d="M 873.4047,329.20659 H 851.4672 V 182.48784 h 21.9375 z m 101.32874,0 h -19.21875 l -35.15625,-92.34375 q 1.40625,6.75 1.40625,10.59375 v 81.75 h -21.375 V 182.48784 h 19.21875 l 35.15625,90.46875 q -1.40625,-6.75 -1.40625,-10.59375 v -79.875 h 21.375 z m 99.64126,-146.71875 -28.125,146.90625 h -21.8438 L 996.37469,182.48784 h 22.03121 l 16.4063,100.59375 q 0.1875,4.3125 0.5625,12.5625 -0.094,-4.3125 0.5625,-12.5625 l 16.5,-100.59375 z m 43.6725,146.71875 h -21.9375 V 182.48784 h 21.9375 z m 97.2975,-13.40625 q 0,13.40625 -13.3125,13.40625 h -44.1563 q -13.2187,0 -13.2187,-13.40625 v -34.96875 h 21.9375 v 29.90625 h 26.8125 v -28.78125 l -43.9688,-41.625 q -4.7812,-4.59375 -4.7812,-11.71875 v -32.625 q 0,-13.5 13.2187,-13.5 h 44.1563 q 13.3125,0 13.3125,13.3125 v 32.8125 h -21.9375 v -27.65625 h -26.8125 v 26.53125 l 43.9687,41.4375 q 4.7813,4.5 4.7813,11.90625 z m 98.61,0 q 0,13.40625 -13.4063,13.40625 h -45.75 q -13.0312,0 -13.0312,-13.40625 v -119.8125 q 0,-13.5 13.0312,-13.5 h 45.75 q 13.4063,0 13.4063,13.5 v 34.3125 h -21.8438 v -28.96875 h -28.4062 v 109.03125 h 28.4062 v -30.84375 h 21.8438 z m 48.5474,13.40625 h -21.9375 V 182.48784 h 21.9375 z m 100.1101,-27.65625 q 0,12.9375 -7.6875,20.34375 -7.6875,7.3125 -20.7188,7.3125 h -44.7187 V 182.48784 h 44.7187 q 13.0313,0 20.7188,7.5 7.6875,7.40625 7.6875,20.34375 z m -22.0313,-3.65625 v -84.28125 q 0,-12.28125 -12.8437,-12.28125 h -16.3125 v 109.03125 h 15.75 q 13.4062,0 13.4062,-12.46875 z"
         id="path5" />
    </g>
  </g>
</svg>
