<?xml version="1.0" encoding="UTF-8" standalone="no"?>
<svg
   width="3010.0537"
   height="650.25397"
   version="1.1"
   id="svg5006"
   sodipodi:docname="Small2.svg"
   inkscape:version="1.3 (0e150ed6c4, 2023-07-21)"
   xmlns:inkscape="http://www.inkscape.org/namespaces/inkscape"
   xmlns:sodipodi="http://sodipodi.sourceforge.net/DTD/sodipodi-0.dtd"
   xmlns="http://www.w3.org/2000/svg"
   xmlns:svg="http://www.w3.org/2000/svg"
   xmlns:rdf="http://www.w3.org/1999/02/22-rdf-syntax-ns#"
   xmlns:cc="http://creativecommons.org/ns#"
   xmlns:dc="http://purl.org/dc/elements/1.1/">
  <metadata
     id="metadata5010">
    <rdf:RDF>
      <cc:Work
         rdf:about="">
        <dc:format>image/svg+xml</dc:format>
        <dc:type
           rdf:resource="http://purl.org/dc/dcmitype/StillImage" />
      </cc:Work>
    </rdf:RDF>
  </metadata>
  <sodipodi:namedview
     pagecolor="#ffffff"
     bordercolor="#666666"
     borderopacity="1"
     objecttolerance="10"
     gridtolerance="10"
     guidetolerance="10"
     inkscape:pageopacity="0"
     inkscape:pageshadow="2"
     inkscape:window-width="1920"
     inkscape:window-height="1027"
     id="namedview5008"
     showgrid="false"
     inkscape:zoom="0.29732611"
     inkscape:cx="1429.4069"
     inkscape:cy="607.07753"
     inkscape:window-x="1912"
     inkscape:window-y="-8"
     inkscape:window-maximized="1"
     inkscape:current-layer="g5004"
     inkscape:showpageshadow="2"
     inkscape:pagecheckerboard="0"
     inkscape:deskcolor="#d1d1d1">
    <inkscape:grid
       type="xygrid"
       id="grid13218"
       originx="-80.647979"
       originy="-142.88977"
       spacingy="1"
       spacingx="1"
       units="px"
       visible="false" />
  </sodipodi:namedview>
  <desc
     id="desc4815">C:\Users\Jason Zhang\Desktop\Synchronized Folder\Inviscid Group\Branding\Working Preference\LOGO.DXF - scale = 1.000000, origin = (0.000000, 0.000000), method = manual</desc>
  <defs
     id="defs4830">
    <rect
       x="763.40849"
       y="302.03389"
       width="1705.1834"
       height="302.03389"
       id="rect6" />
    <rect
       x="751.51739"
       y="313.92498"
       width="1755.1261"
       height="294.89923"
       id="rect3" />
    <rect
       x="770.54314"
       y="156.96249"
       width="2387.7324"
       height="575.52914"
       id="rect1" />
    <rect
       x="850.91754"
       y="158.07559"
       width="1695.1084"
       height="517.94983"
       id="rect11" />
    <rect
       x="1133.4355"
       y="215.25188"
       width="1584.1191"
       height="403.59726"
       id="rect10" />
    <rect
       x="800.4679"
       y="131.16911"
       width="1829.6409"
       height="487.68002"
       id="rect9" />
    <rect
       x="751.5174"
       y="142.69318"
       width="784.8125"
       height="711.08765"
       id="rect4" />
    <rect
       x="728.15668"
       y="186.66373"
       width="475.90842"
       height="544.85626"
       id="rect2" />
    <marker
       id="DistanceX"
       orient="auto"
       refX="0"
       refY="0"
       style="overflow:visible"
       viewBox="0 0 6.3535534 10"
       markerWidth="6.3535533"
       markerHeight="10"
       preserveAspectRatio="xMidYMid">
      <path
         d="M 3,-3 -3,3 M 0,-5 V 5"
         style="stroke:#000000;stroke-width:0.5"
         id="path4817" />
    </marker>
    <pattern
       height="8"
       id="Hatch"
       patternUnits="userSpaceOnUse"
       width="8"
       x="0"
       y="0">
      <path
         d="M8 4 l-4,4"
         linecap="square"
         stroke="#000000"
         stroke-width="0.25"
         id="path4820" />
      <path
         d="M6 2 l-4,4"
         linecap="square"
         stroke="#000000"
         stroke-width="0.25"
         id="path4822" />
      <path
         d="M4 0 l-4,4"
         linecap="square"
         stroke="#000000"
         stroke-width="0.25"
         id="path4824" />
    </pattern>
    <symbol
       id="*Model_Space" />
    <symbol
       id="*Paper_Space" />
    <symbol
       id="*Paper_Space0" />
  </defs>
  <g
     inkscape:groupmode="layer"
     inkscape:label="0"
     id="g5004"
     transform="translate(-80.64798,-142.88977)">
    <ellipse
       style="fill:#000000;fill-opacity:1;stroke:#000000;stroke-width:1;stroke-linecap:square;stroke-linejoin:round;stroke-dasharray:none;stroke-dashoffset:37.7953;paint-order:stroke markers fill"
       id="path1"
       cx="406.96405"
       cy="468.01675"
       rx="325.81607"
       ry="324.62698" />
    <path
       id="path5002"
       style="fill:#ffffff;fill-opacity:1;stroke:none;stroke-width:0.5832;stroke-linecap:round;stroke-miterlimit:4;stroke-dasharray:none"
       d="m 474.0287,294.90578 c -0.004,-6.7604 -5.48527,-12.23876 -12.24567,-12.23876 -6.7604,0 -12.24186,5.47836 -12.24566,12.23876 v 323.28567 c 0,60.86786 -49.34316,110.21102 -110.21103,110.21102 -6.7604,0.005 -12.23876,5.48527 -12.23876,12.24568 0,6.76039 5.47836,12.24185 12.23876,12.24566 74.39406,-10e-6 134.70235,-60.30831 134.70236,-134.70236 z M 327.08758,679.4198 c 0,-6.7604 5.47836,-12.24185 12.23876,-12.24567 27.05239,0 48.98268,-21.93029 48.98268,-48.98268 V 304.70232 c 0,-40.57858 32.89543,-73.47402 73.47401,-73.47402 6.7631,0 12.24566,5.48257 12.24566,12.24567 0,6.7631 -5.48256,12.24567 -12.24566,12.24567 -27.05239,0 -48.98267,21.93029 -48.98267,48.98268 v 313.48913 c -1e-5,40.57858 -32.89544,73.47401 -73.47402,73.47401 -6.7604,-0.005 -12.23876,-5.48527 -12.23876,-12.24566 z m -0.007,-374.71748 c 0,-74.39407 60.3083,-134.70237 134.70236,-134.70237 6.762,0.002 12.24285,5.48368 12.24285,12.24567 0,6.762 -5.48085,12.24411 -12.24285,12.24567 -60.86787,0 -110.21102,49.34315 -110.21102,110.21103 v 323.28567 c -0.005,6.7604 -5.48527,12.23875 -12.24568,12.23875 -6.76039,0 -12.24185,-5.47835 -12.24566,-12.23875 z"
       inkscape:connector-curvature="0"
       sodipodi:nodetypes="cccscccsccccsccccsccscccscccs" />
    <g
       id="text1"
       style="font-size:192px;line-height:1.25;font-family:Stencil;-inkscape-font-specification:Stencil;letter-spacing:0px;word-spacing:0px;white-space:pre"
       transform="matrix(1.6506757,0,0,1,-440.97298,2.5748106)"
       aria-label="INVISCIDPD.com&#10;">
      <path
         style="font-weight:bold;font-stretch:condensed;font-family:'Agency FB';-inkscape-font-specification:'Agency FB Bold Condensed';stroke-width:1.64139;stroke-dasharray:none"
         d="M 818.21911,450.23318 H 777.69294 V 236.33407 h 40.52617 z m 170.59098,0 h -35.50371 l -64.9458,-134.62659 q 2.59784,9.84072 2.59784,15.44447 V 450.23318 H 851.47136 V 236.33407 h 35.5037 l 64.94581,131.89305 q -2.59784,-9.84071 -2.59784,-15.44446 V 236.33407 h 39.48706 z M 1156.2836,236.33407 1104.327,450.50653 h -40.3531 l -51.7834,-214.17246 h 40.6994 l 30.3081,146.65415 q 0.3463,6.28712 1.0391,18.31468 -0.1732,-6.28713 1.0391,-18.31468 l 30.4812,-146.65415 z m 64.0799,213.89911 h -40.5263 V 236.33407 h 40.5263 z m 163.1439,-19.54479 q 0,19.54479 -24.593,19.54479 h -81.5718 q -24.4196,0 -24.4196,-19.54479 v -50.98041 h 40.5262 v 43.59987 h 49.5319 v -41.95976 l -81.2256,-60.68447 q -8.8325,-6.69716 -8.8325,-17.0846 v -47.5635 q 0,-19.68145 24.4196,-19.68145 h 81.5718 q 24.593,0 24.593,19.4081 v 47.83685 h -40.5263 v -40.31964 h -49.5319 v 38.67953 l 81.2255,60.41112 q 8.8327,6.56048 8.8327,17.35795 z m 165.5685,0 q 0,19.54479 -24.7662,19.54479 h -84.5161 q -24.0732,0 -24.0732,-19.54479 V 256.01552 q 0,-19.68145 24.0732,-19.68145 h 84.5161 q 24.7662,0 24.7662,19.68145 v 50.0237 h -40.3532 v -42.23313 h -52.4761 v 158.95506 h 52.4761 V 377.7945 h 40.3532 z m 73.0857,19.54479 h -40.5263 V 236.33407 h 40.5263 z m 168.3394,-40.31965 q 0,18.8614 -14.2015,29.65886 -14.2015,10.66079 -38.2748,10.66079 h -82.611 V 236.33407 h 82.611 q 24.0733,0 38.2748,10.93414 14.2015,10.79747 14.2015,29.65886 z m -40.6995,-5.33039 V 281.71075 q 0,-17.90466 -23.7267,-17.90466 H 1695.94 v 158.95506 h 29.0957 q 24.7658,0 24.7658,-18.17801 z"
         id="path5" />
      <path
         style="font-family:'Agency FB';-inkscape-font-specification:'Agency FB'"
         d="m 833.25195,449.31445 q 0,4.59375 -3,7.59375 -2.90625,2.90625 -7.5,2.90625 H 788.1582 V 518.0332 H 775.12695 V 371.31445 h 47.625 q 4.59375,0 7.5,2.90625 3,2.90625 3,7.5 z m -13.03125,-1.125 V 382.8457 h -32.0625 v 65.34375 z m 96.09375,69.84375 h -13.6875 l -27.28125,-78.5625 1.78125,-2.625 h 23.25 v -54 H 866.9082 V 518.0332 H 853.87695 V 371.31445 h 49.125 q 4.59375,0 7.5,2.90625 2.90625,2.90625 2.90625,7.5 v 55.6875 q 0,10.59375 -14.25,10.59375 -1.40625,0 -4.125,-0.0937 -2.71875,-0.1875 -3.9375,-0.1875 12.65625,35.0625 25.21875,70.3125 z m 81.46875,-10.40625 q 0,4.59375 -3,7.5 -2.90625,2.90625 -7.5,2.90625 h -41.0625 q -4.59375,0 -7.5,-2.90625 -2.90625,-2.90625 -2.90625,-7.5 V 381.7207 q 0,-4.59375 2.90625,-7.5 2.90625,-2.90625 7.5,-2.90625 h 41.0625 q 4.59375,0 7.5,2.90625 3,2.90625 3,7.5 z m -13.03125,-1.125 V 382.8457 H 948.8457 v 123.65625 z m 96.93755,-15 q 0,11.625 -7.6875,19.125 -7.5938,7.40625 -19.2188,7.40625 h -33.5625 V 371.31445 h 33.5625 q 11.7188,0 19.3125,7.5 7.5938,7.40625 7.5938,19.03125 z m -13.0313,-1.3125 V 398.9707 q 0,-7.21875 -4.5937,-11.625 -4.5,-4.5 -11.7188,-4.5 h -18.0937 v 123.65625 h 17.3437 q 7.5938,0 12.2813,-4.3125 4.7812,-4.40625 4.7812,-12 z m 96.75,17.4375 q 0,4.59375 -3,7.5 -2.9062,2.90625 -7.5,2.90625 h -39.9375 q -4.5937,0 -7.5,-2.90625 -2.9062,-2.90625 -2.9062,-7.5 v -136.3125 h 13.0312 v 135.1875 h 34.7813 v -135.1875 h 13.0312 z m 82.2188,0 q 0,4.59375 -3,7.5 -3,2.90625 -7.5938,2.90625 h -37.7812 q -4.5938,0 -7.5,-2.90625 -2.9063,-2.90625 -2.9063,-7.5 V 381.7207 q 0,-4.59375 2.9063,-7.5 2.9062,-2.90625 7.5,-2.90625 h 37.7812 q 4.5938,0 7.5938,2.90625 3,2.90625 3,7.5 v 34.125 h -13.125 v -33 h -32.625 v 123.65625 h 32.625 V 470.4082 h 13.125 z m 73.3125,-124.78125 h -22.6875 v 135.1875 h -13.0313 V 382.8457 h -22.875 v -11.53125 h 58.5938 z m 113.3437,108.65625 q 0,11.625 -7.6875,19.125 -7.5937,7.40625 -19.2187,7.40625 h -33.5625 V 371.31445 h 33.5625 q 11.7187,0 19.3125,7.5 7.5937,7.40625 7.5937,19.03125 z m -13.0312,-1.3125 V 398.9707 q 0,-7.21875 -4.5938,-11.625 -4.5,-4.5 -11.7187,-4.5 h -18.0938 v 123.65625 h 17.3438 q 7.5937,0 12.2812,-4.3125 4.7813,-4.40625 4.7813,-12 z m 84.0937,27.84375 h -48.1875 V 371.31445 h 47.625 v 11.53125 h -34.5937 v 54.75 h 31.5 v 11.71875 h -31.5 v 57.1875 h 35.1562 z m 77.625,-146.71875 -25.4062,147.09375 h -12.2813 L 1519.877,371.31445 h 12.9375 l 18.1875,116.8125 q 0,0 0.5625,9.5625 0.094,-3.28125 0.6562,-9.5625 l 18.1875,-116.8125 z m 65.8125,146.71875 h -48.1875 V 371.31445 h 47.625 v 11.53125 h -34.5937 v 54.75 h 31.5 v 11.71875 h -31.5 v 57.1875 h 35.1562 z m 67.2188,0 h -46.875 V 371.31445 h 13.0312 v 135.1875 h 33.8438 z m 79.7812,-10.40625 q 0,4.59375 -3,7.5 -2.9062,2.90625 -7.5,2.90625 h -41.0625 q -4.5937,0 -7.5,-2.90625 -2.9062,-2.90625 -2.9062,-7.5 V 381.7207 q 0,-4.59375 2.9062,-7.5 2.9063,-2.90625 7.5,-2.90625 h 41.0625 q 4.5938,0 7.5,2.90625 3,2.90625 3,7.5 z m -13.0312,-1.125 V 382.8457 h -35.9063 v 123.65625 z m 94.5937,-57.1875 q 0,4.59375 -3,7.59375 -2.9062,2.90625 -7.5,2.90625 h -34.5937 v 58.21875 h -13.0313 V 371.31445 h 47.625 q 4.5938,0 7.5,2.90625 3,2.90625 3,7.5 z m -13.0312,-1.125 V 382.8457 h -32.0625 v 65.34375 z m 106.2187,69.84375 h -12.2812 v -92.90625 q 0,-1.96875 1.3125,-11.53125 l -24,90.65625 h -2.625 l -24,-90.65625 q 1.3125,9.65625 1.3125,11.53125 v 92.90625 h -12.2813 V 371.31445 h 12.0938 l 23.8125,95.4375 q 0.1875,0.75 0.375,4.21875 0,-1.40625 0.375,-4.21875 l 23.8125,-95.4375 h 12.0937 z m 71.625,0 h -48.1875 V 371.31445 h 47.625 v 11.53125 h -34.5937 v 54.75 h 31.5 v 11.71875 h -31.5 v 57.1875 h 35.1562 z m 80.8125,0 h -9 L 2074.7832,410.12695 V 518.0332 H 2062.502 V 371.31445 h 9.75 l 38.4375,106.03125 V 371.31445 h 12.2812 z m 73.9688,-135.1875 h -22.6875 v 135.1875 h -13.0313 V 382.8457 h -22.875 v -11.53125 h 58.5938 z"
         id="text6"
         transform="matrix(0.71159354,0,0,1.1143254,225.86065,107.95422)"
         aria-label="PRODUCT DEVELOPMENT " />
    </g>
  </g>
</svg>
