<?xml version="1.0" encoding="UTF-8" standalone="no"?>
<!-- Created with Inkscape (http://www.inkscape.org/) -->

<svg
   width="40.572872mm"
   height="40.572872mm"
   viewBox="0 0 40.572872 40.572872"
   version="1.1"
   id="svg1"
   inkscape:version="1.3 (0e150ed6c4, 2023-07-21)"
   sodipodi:docname="FirmSoft.svg"
   xmlns:inkscape="http://www.inkscape.org/namespaces/inkscape"
   xmlns:sodipodi="http://sodipodi.sourceforge.net/DTD/sodipodi-0.dtd"
   xmlns="http://www.w3.org/2000/svg"
   xmlns:svg="http://www.w3.org/2000/svg">
  <sodipodi:namedview
     id="namedview1"
     pagecolor="#ffffff"
     bordercolor="#666666"
     borderopacity="1.0"
     inkscape:showpageshadow="2"
     inkscape:pageopacity="0.0"
     inkscape:pagecheckerboard="0"
     inkscape:deskcolor="#d1d1d1"
     inkscape:document-units="mm"
     inkscape:zoom="0.18520833"
     inkscape:cx="-847.69404"
     inkscape:cy="1139.2576"
     inkscape:window-width="1350"
     inkscape:window-height="1050"
     inkscape:window-x="623"
     inkscape:window-y="1176"
     inkscape:window-maximized="0"
     inkscape:current-layer="layer1" />
  <defs
     id="defs1" />
  <g
     inkscape:label="Layer 1"
     inkscape:groupmode="layer"
     id="layer1"
     transform="translate(-83.020813,-112.90248)"><style
   id="style1">&#10;.MsftOfcThm_Background1_Fill_v2 {&#10; fill:#FFFFFF; &#10;}&#10;</style>
&#10;<g
   id="g1"
   transform="matrix(0.00670626,0,0,-0.00670626,-163.69981,317.29051)">
  <path
     d="m 41829.6,29597.2 v -510 h -4780 v 510 z m -3650,-3780 h -1130 v 3020 h 1130 z m -1390,-260 h 1890 v 260 h -250 v 3020 h 3400 v -3020 h -370 v -260 h 630 v 4290 h -5300 v -4290"
     id="path136"
     class="MsftOfcThm_Background1_Fill_v2"
     fill="#FFFFFF" />
  <path
     d="m 37549.6,30477.2 v -510 h 250 v 260 h 4790 v -3780 h -380 v -260 h 630 v 4290 h -5290"
     id="path138"
     class="MsftOfcThm_Background1_Fill_v2"
     fill="#FFFFFF" />
  <path
     d="m 41077.6,25586.4 h -228.2 l -24.4,-94.5 c -18.2,-70.8 -46.2,-138.4 -83.1,-200.8 l -49.6,-84.1 161.3,-161.2 -142.5,-142.7 -161.4,161.5 -84.1,-49.7 c -62.4,-36.9 -129.8,-64.9 -200.7,-83.1 l -94.5,-24.3 v -228.3 h -201.6 v 228.3 l -94.5,24.3 c -70.8,18.2 -138.3,46.2 -200.7,83.1 l -84.1,49.7 -161.4,-161.5 -142.5,142.7 161.3,161.2 -49.6,84.1 c -36.9,62.4 -64.9,130 -83.1,200.8 l -24.4,94.5 h -228.2 v 201.6 h 228.2 l 24.4,94.5 c 18.2,70.9 46.2,138.4 83.1,200.8 l 49.6,84.2 -161.3,161.1 142.5,142.7 161.4,-161.5 84.1,49.7 c 62.4,36.9 129.9,64.9 200.7,83.1 l 94.5,24.4 v 228.2 h 201.6 V 26467 l 94.5,-24.4 c 70.9,-18.2 138.3,-46.2 200.7,-83.1 l 84.1,-49.7 161.4,161.5 142.5,-142.7 -161.3,-161.1 49.6,-84.2 c 36.9,-62.4 64.9,-129.9 83.1,-200.8 l 24.4,-94.5 h 228.2 z m -72.5,537.4 205,204.8 -499,499 -204.9,-204.9 c -27.4,12.8 -55.3,24.4 -83.8,34.7 v 289.8 h -705.6 v -289.8 c -28.5,-10.3 -56.4,-21.9 -83.8,-34.7 l -204.9,204.9 -499,-499 205,-204.8 c -12.8,-27.3 -24.4,-55.4 -34.7,-83.8 h -289.8 v -705.6 h 289.8 c 10.3,-28.4 21.9,-56.5 34.7,-83.8 l -205,-204.8 499,-499 204.9,204.9 c 27.4,-12.8 55.3,-24.4 83.8,-34.7 v -289.8 h 705.6 v 289.8 c 28.5,10.3 56.4,21.9 83.8,34.7 l 204.9,-204.9 499,499 -205,204.8 c 12.8,27.3 24.4,55.4 34.7,83.8 h 289.8 v 705.6 h -289.8 c -10.3,28.4 -21.9,56.5 -34.7,83.8"
     id="path140"
     class="MsftOfcThm_Background1_Fill_v2"
     fill="#FFFFFF" />
  <path
     d="m 40069.6,25359.7 c -180.6,0 -327.6,146.9 -327.6,327.5 0,180.6 147,327.6 327.6,327.6 180.6,0 327.6,-147 327.6,-327.6 0,-180.6 -147,-327.5 -327.6,-327.5 z m 0,907.1 c -319.6,0 -579.6,-260 -579.6,-579.6 0,-319.6 260,-579.5 579.6,-579.5 319.6,0 579.6,259.9 579.6,579.5 0,319.6 -260,579.6 -579.6,579.6"
     id="path142"
     class="MsftOfcThm_Background1_Fill_v2"
     fill="#FFFFFF" />
  <path
     d="m 41203.6,29467.2 h -252 v -252 h 252 v 252"
     id="path144"
     class="MsftOfcThm_Background1_Fill_v2"
     fill="#FFFFFF" />
  <path
     d="m 40825.6,29467.2 h -252 v -252 h 252 v 252"
     id="path146"
     class="MsftOfcThm_Background1_Fill_v2"
     fill="#FFFFFF" />
  <path
     d="m 41581.6,29467.2 h -252 v -252 h 252 v 252"
     id="path148"
     class="MsftOfcThm_Background1_Fill_v2"
     fill="#FFFFFF" />
  <path
     d="m 40510.6,28459.2 h -1638 v -252 h 1638 v 252"
     id="path150"
     class="MsftOfcThm_Background1_Fill_v2"
     fill="#FFFFFF" />
  <path
     d="m 38872.6,27703.2 h 1134 v 252 h -1134 v -252"
     id="path152"
     class="MsftOfcThm_Background1_Fill_v2"
     fill="#FFFFFF" />
  <path
     d="m 40951.6,28459.2 h -252 v -252 h 252 v 252"
     id="path154"
     class="MsftOfcThm_Background1_Fill_v2"
     fill="#FFFFFF" />
</g>
</g>
</svg>
