<?xml version="1.0" encoding="UTF-8" standalone="no"?>
<!-- Created with Inkscape (http://www.inkscape.org/) -->

<svg
   width="39.687519mm"
   height="39.687519mm"
   viewBox="0 0 39.687519 39.687519"
   version="1.1"
   id="svg1"
   inkscape:version="1.3 (0e150ed6c4, 2023-07-21)"
   sodipodi:docname="MFG.svg"
   xmlns:inkscape="http://www.inkscape.org/namespaces/inkscape"
   xmlns:sodipodi="http://sodipodi.sourceforge.net/DTD/sodipodi-0.dtd"
   xmlns="http://www.w3.org/2000/svg"
   xmlns:svg="http://www.w3.org/2000/svg">
  <sodipodi:namedview
     id="namedview1"
     pagecolor="#ffffff"
     bordercolor="#666666"
     borderopacity="1.0"
     inkscape:showpageshadow="2"
     inkscape:pageopacity="0.0"
     inkscape:pagecheckerboard="0"
     inkscape:deskcolor="#d1d1d1"
     inkscape:document-units="mm"
     inkscape:zoom="0.26173516"
     inkscape:cx="-347.67969"
     inkscape:cy="534.89184"
     inkscape:window-width="1350"
     inkscape:window-height="1050"
     inkscape:window-x="804"
     inkscape:window-y="1135"
     inkscape:window-maximized="0"
     inkscape:current-layer="layer1" />
  <defs
     id="defs1" />
  <g
     inkscape:label="Layer 1"
     inkscape:groupmode="layer"
     id="layer1"
     transform="translate(-56.163644,-122.78591)"><style
   id="style1">&#10;.MsftOfcThm_Background1_Fill_v2 {&#10; fill:#FFFFFF; &#10;}&#10;</style>
&#10;<style
   id="style1-1">&#10;.MsftOfcThm_Background1_Fill_v2 {&#10; fill:#FFFFFF; &#10;}&#10;</style>
&#10;<g
   id="g1"
   transform="matrix(0.00656209,0,0,-0.00656209,-120.78705,258.27469)">
  <path
     d="m 32509.6,14851.2 h -5040 c -139,0 -252,113.1 -252,252 0,138.9 113,252 252,252 h 5040 c 139,0 252,-113.1 252,-252 0,-138.9 -113,-252 -252,-252 z m -4030,1516 h 1010 v -760 h -1010 z m 4030,-760 h -2770 v 1010 h -1510 v -1010 h -760 c -277.9,0 -504,-226 -504,-504 0,-278 226.1,-504 504,-504 h 5040 c 277.9,0 504,226 504,504 0,278 -226.1,504 -504,504"
     id="path160"
     class="MsftOfcThm_Background1_Fill_v2"
     fill="#FFFFFF" />
  <path
     d="m 32009.6,14977.2 h 250 v 250 h -250 v -250"
     id="path162"
     class="MsftOfcThm_Background1_Fill_v2"
     fill="#FFFFFF" />
  <path
     d="m 31379.6,14977.2 h 250 v 250 h -250 v -250"
     id="path164"
     class="MsftOfcThm_Background1_Fill_v2"
     fill="#FFFFFF" />
  <path
     d="m 30749.6,14977.2 h 250 v 250 h -250 v -250"
     id="path166"
     class="MsftOfcThm_Background1_Fill_v2"
     fill="#FFFFFF" />
  <path
     d="m 30119.6,14977.2 h 250 v 250 h -250 v -250"
     id="path168"
     class="MsftOfcThm_Background1_Fill_v2"
     fill="#FFFFFF" />
  <path
     d="m 29489.6,14977.2 h 250 v 250 h -250 v -250"
     id="path170"
     class="MsftOfcThm_Background1_Fill_v2"
     fill="#FFFFFF" />
  <path
     d="m 28859.6,14977.2 h 250 v 250 h -250 v -250"
     id="path172"
     class="MsftOfcThm_Background1_Fill_v2"
     fill="#FFFFFF" />
  <path
     d="m 28229.6,14977.2 h 250 v 250 h -250 v -250"
     id="path174"
     class="MsftOfcThm_Background1_Fill_v2"
     fill="#FFFFFF" />
  <path
     d="m 27599.6,14977.2 h 250 v 250 h -250 v -250"
     id="path176"
     class="MsftOfcThm_Background1_Fill_v2"
     fill="#FFFFFF" />
  <path
     d="m 32383.6,20647.2 v -252 h 630 v 252 h -630"
     id="path178"
     class="MsftOfcThm_Background1_Fill_v2"
     fill="#FFFFFF" />
  <path
     d="m 30115.6,20647.2 h -3150 v -252 h 3150 v 252"
     id="path180"
     class="MsftOfcThm_Background1_Fill_v2"
     fill="#FFFFFF" />
  <path
     d="m 32383.5,19891.2 h 630.1 v 252 h -630.1 v -252"
     id="path182"
     class="MsftOfcThm_Background1_Fill_v2"
     fill="#FFFFFF" />
  <path
     d="m 30115.6,20143.2 h -3150 v -252 h 3150 v 252"
     id="path184"
     class="MsftOfcThm_Background1_Fill_v2"
     fill="#FFFFFF" />
  <path
     d="m 30489.6,20397.2 h 1520 v -510 h -1520 z m 1268.6,-1268.8 c -114.7,156.7 -299.9,258.8 -508.6,258.8 -208.7,0 -393.9,-102.1 -508.6,-258.8 l -190.8,508.8 H 31949 Z m -508.6,-749.2 c -208.4,0 -378,169.6 -378,378 0,208.4 169.6,378 378,378 208.4,0 378,-169.6 378,-378 0,-208.4 -169.6,-378 -378,-378 z m -1892.1,-716.3 c -8.5,81.1 -42.7,154.5 -94.3,212.2 l 1385.5,692.8 c 42.1,-133.4 127.6,-247.6 239.7,-326.4 L 29382.7,17625 Z m -375.9,-165.7 c -69.5,0 -126,56.5 -126,126 0,69.5 56.5,126 126,126 69.5,0 126,-56.5 126,-126 0,-69.5 -56.5,-126 -126,-126 z m 1606.2,1322 -1639,-819.5 c -178.7,-15.5 -322.1,-155.6 -342.6,-332.9 l -256.6,-383.5 v -416.1 h 250 v 339.9 l 106.1,158.1 c 69,-73.8 167.1,-120 275.9,-120 107.7,0 205,45.4 273.9,117.9 l 104.1,-156 v -339.9 h 250 v 416.1 l -84.7,127.5 1751.2,717.1 c 327,13.6 590.2,277.5 602.9,604.7 l 380.6,904.6 v 1010 h -2020 v -1010 l 348.2,-818"
     id="path186"
     class="MsftOfcThm_Background1_Fill_v2"
     fill="#FFFFFF" />
</g>
</g>
</svg>
