<?xml version="1.0" encoding="UTF-8" standalone="no"?>
<!-- Created with Inkscape (http://www.inkscape.org/) -->

<svg
   width="139.96022"
   height="139.91396"
   viewBox="0 0 37.031141 37.018902"
   version="1.1"
   id="svg1"
   inkscape:version="1.3 (0e150ed6c4, 2023-07-21)"
   sodipodi:docname="ProdDes.svg"
   xmlns:inkscape="http://www.inkscape.org/namespaces/inkscape"
   xmlns:sodipodi="http://sodipodi.sourceforge.net/DTD/sodipodi-0.dtd"
   xmlns="http://www.w3.org/2000/svg"
   xmlns:svg="http://www.w3.org/2000/svg">
  <sodipodi:namedview
     id="namedview1"
     pagecolor="#ffffff"
     bordercolor="#666666"
     borderopacity="1.0"
     inkscape:showpageshadow="2"
     inkscape:pageopacity="0.0"
     inkscape:pagecheckerboard="0"
     inkscape:deskcolor="#d1d1d1"
     inkscape:document-units="mm"
     inkscape:zoom="1.4805976"
     inkscape:cx="115.8316"
     inkscape:cy="170.87694"
     inkscape:window-width="1567"
     inkscape:window-height="1050"
     inkscape:window-x="468"
     inkscape:window-y="1147"
     inkscape:window-maximized="0"
     inkscape:current-layer="layer1" />
  <defs
     id="defs1" />
  <g
     inkscape:label="Layer 1"
     inkscape:groupmode="layer"
     id="layer1"
     transform="translate(1.6247338,-33.304392)"><style
   id="style1">&#10;.MsftOfcThm_Text1_Fill_v2 {&#10; fill:#000000; &#10;}&#10;</style>
&#10;<g
   id="g1"
   transform="matrix(0.00612085,0,0,-0.00612085,-46.365699,219.83852)">
  <path
     d="m 7561.6,29593.2 c 0,208.4 169.56,378 378,378 208.44,0 378,-169.6 378,-378 V 25561 c -8.04,6 -16.28,11.8 -24.62,17.5 -1.45,1 -2.92,1.9 -4.38,2.9 -6.45,4.3 -12.97,8.5 -19.58,12.5 -1.98,1.3 -3.97,2.5 -5.96,3.7 -6.52,3.9 -13.12,7.7 -19.8,11.4 -1.75,0.9 -3.49,1.9 -5.26,2.9 -16.89,9.1 -34.23,17.5 -52.01,25.1 -1.91,0.8 -3.87,1.5 -5.79,2.3 -6.83,2.9 -13.71,5.6 -20.65,8.2 -2.76,1 -5.54,2 -8.31,3 -6.39,2.3 -12.82,4.5 -19.29,6.6 -2.83,0.9 -5.66,1.8 -8.51,2.7 -7.22,2.2 -14.5,4.2 -21.83,6.2 -1.99,0.5 -3.95,1.1 -5.95,1.6 -9.35,2.4 -18.79,4.6 -28.3,6.6 -1.87,0.3 -3.77,0.6 -5.64,1 -7.59,1.5 -15.21,2.9 -22.89,4.1 -3.21,0.5 -6.45,1 -9.68,1.4 -6.51,1 -13.04,1.8 -19.62,2.5 -3.47,0.4 -6.94,0.8 -10.43,1.1 -6.76,0.6 -13.57,1.1 -20.39,1.6 -3.11,0.2 -6.2,0.4 -9.32,0.5 -9.87,0.5 -19.8,0.8 -29.79,0.8 -9.99,0 -19.91,-0.3 -29.79,-0.8 -3.12,-0.1 -6.21,-0.3 -9.31,-0.5 -6.83,-0.5 -13.63,-1 -20.4,-1.6 -3.48,-0.3 -6.96,-0.7 -10.43,-1.1 -6.57,-0.7 -13.11,-1.5 -19.62,-2.5 -3.23,-0.4 -6.46,-0.9 -9.67,-1.4 -7.68,-1.2 -15.31,-2.6 -22.89,-4.1 -1.88,-0.4 -3.77,-0.7 -5.64,-1 -9.52,-2 -18.95,-4.2 -28.31,-6.6 -1.99,-0.5 -3.96,-1.1 -5.95,-1.6 -7.32,-2 -14.6,-4 -21.82,-6.2 -2.86,-0.9 -5.68,-1.8 -8.52,-2.7 -6.47,-2.1 -12.9,-4.3 -19.28,-6.6 -2.77,-1 -5.55,-2 -8.31,-3 -6.95,-2.6 -13.82,-5.3 -20.65,-8.2 -1.93,-0.8 -3.88,-1.5 -5.8,-2.3 -17.77,-7.6 -35.11,-16 -52.01,-25.1 -1.77,-1 -3.5,-2 -5.26,-2.9 -6.67,-3.7 -13.27,-7.5 -19.79,-11.4 -2,-1.2 -3.98,-2.4 -5.96,-3.7 -6.61,-4 -13.14,-8.2 -19.58,-12.5 -1.46,-1 -2.94,-1.9 -4.39,-2.9 -8.33,-5.7 -16.57,-11.5 -24.62,-17.5 z m 3278,-2390.3 v 244.3 h -250 v -244.6 c -177.5,9.9 -351.1,41.5 -518.1,93.6 l 409.5,1325.1 c 72.8,-23.4 150.2,-36.1 230.6,-36.1 80.4,0 157.8,12.7 230.6,36.1 l 409.5,-1325.1 c -165.1,-51.5 -336.7,-83 -512.1,-93.3 z m -254,2626.4 v -362.1 h 252 v 362.1 c 217.1,-56.1 378,-253.6 378,-488.1 0,-278 -226.1,-504 -504,-504 -277.9,0 -504,226 -504,504 0,234.5 160.9,432 378,488.1 z m 1004,-362.1 v -250 h 1520 v -2632.8 c -320.6,-279.1 -684,-497.6 -1073.6,-649 l -373.3,1207.9 c 159.7,69.3 312.5,156.5 456,260.9 l -148.3,203.8 c -120.7,-87.9 -248.9,-162.1 -382.6,-222.2 l -418.5,1354.2 c 181.1,138.2 298.3,356.2 298.3,601.2 0,373.9 -272.9,685.1 -630,745.3 v 388.7 h -252 v -388.7 c -357.1,-60.2 -630,-371.4 -630,-745.3 0,-245 117.2,-463 298.3,-601.2 l -418.46,-1354.2 c -133.52,60 -261.45,134 -382.05,221.7 l -148.15,-203.8 c 143.31,-104.2 295.83,-191.2 455.28,-260.4 l -555.32,-1796.9 240.8,-74.4 551.12,1783.4 c 190.88,-59.5 389.48,-94.9 592.48,-105.1 v -503.1 h 250 v 503.4 c 201,10.6 397.6,45.8 586.5,104.8 l 371.8,-1203.2 c -348.6,-108.5 -714.4,-165 -1086.3,-165 v -252 c 872.8,0 1714.4,290.4 2398,822.6 v -1580.6 h -5170 c -208.44,0 -378,171.6 -378,380 0,208.4 169.56,378 378,378 208.44,0 378,-169.6 378,-378 h 252 v 4160 h 1260 v 250 h -1260 v 126 c 0,347.4 -282.64,630 -630,630 -347.36,0 -630,-282.6 -630,-630 v -4536 c 0,-347.4 282.64,-630 630,-630 h 5420 v 5040 h -1770"
     id="path104"
     class="MsftOfcThm_Text1_Fill_v2" />
</g>
</g>
</svg>
