<?xml version="1.0" encoding="UTF-8" standalone="no"?>
<!-- Created with Inkscape (http://www.inkscape.org/) -->

<svg
   width="74"
   height="49.999146"
   viewBox="0 0 19.579166 13.22894"
   version="1.1"
   id="svg1"
   inkscape:version="1.3 (0e150ed6c4, 2023-07-21)"
   sodipodi:docname="TechDev.svg"
   xmlns:inkscape="http://www.inkscape.org/namespaces/inkscape"
   xmlns:sodipodi="http://sodipodi.sourceforge.net/DTD/sodipodi-0.dtd"
   xmlns="http://www.w3.org/2000/svg"
   xmlns:svg="http://www.w3.org/2000/svg">
  <sodipodi:namedview
     id="namedview1"
     pagecolor="#ffffff"
     bordercolor="#666666"
     borderopacity="1.0"
     inkscape:showpageshadow="2"
     inkscape:pageopacity="0.0"
     inkscape:pagecheckerboard="0"
     inkscape:deskcolor="#d1d1d1"
     inkscape:document-units="mm"
     inkscape:zoom="1.4805976"
     inkscape:cx="208.69951"
     inkscape:cy="223.22067"
     inkscape:window-width="1920"
     inkscape:window-height="1027"
     inkscape:window-x="213"
     inkscape:window-y="1072"
     inkscape:window-maximized="1"
     inkscape:current-layer="layer1" />
  <defs
     id="defs1">
    <clipPath
       id="clip0">
      <rect
         x="132"
         y="200"
         width="74"
         height="50"
         id="rect1" />
    </clipPath>
    <clipPath
       id="clip1">
      <rect
         x="182"
         y="200"
         width="24"
         height="50"
         id="rect2" />
    </clipPath>
    <clipPath
       id="clip2">
      <rect
         x="182"
         y="200"
         width="24"
         height="50"
         id="rect3" />
    </clipPath>
    <clipPath
       id="clip3">
      <rect
         x="182"
         y="200"
         width="24"
         height="50"
         id="rect4" />
    </clipPath>
  </defs>
  <g
     inkscape:label="Layer 1"
     inkscape:groupmode="layer"
     id="layer1"
     transform="translate(-4.0686116,-6.8084911)">
    <g
       clip-path="url(#clip0)"
       transform="matrix(0.26458333,0,0,0.26458333,-30.856388,-46.108401)"
       id="g22">
      <g
         id="g18">
        <g
           id="g17">
          <g
             id="g16">
            <path
               d="m 242.692,556.855 c 0.972,0 1.759,-0.787 1.759,-1.757 0,-0.972 -0.787,-1.759 -1.759,-1.759 -0.97,0 -1.757,0.787 -1.757,1.759"
               stroke="#ffffff"
               stroke-width="1.96712"
               stroke-linecap="round"
               stroke-linejoin="round"
               stroke-miterlimit="10"
               fill="none"
               transform="matrix(1,0,0,-1,-86.8591,789.783)"
               id="path4" />
            <path
               d="m 259.57,553.69 c 0,-0.97 -0.787,-1.757 -1.757,-1.757 -0.972,0 -1.759,0.787 -1.759,1.757 0,0.972 0.787,1.759 1.759,1.759"
               stroke="#ffffff"
               stroke-width="1.96712"
               stroke-linecap="round"
               stroke-linejoin="round"
               stroke-miterlimit="10"
               fill="none"
               transform="matrix(1,0,0,-1,-86.8591,789.783)"
               id="path5" />
            <path
               d="m 249.374,550.526 c 0.97,0 1.757,-0.787 1.757,-1.757 0,-0.972 -0.787,-1.759 -1.757,-1.759 -0.972,0 -1.759,0.787 -1.759,1.759"
               stroke="#ffffff"
               stroke-width="1.96712"
               stroke-linecap="round"
               stroke-linejoin="round"
               stroke-miterlimit="10"
               fill="none"
               transform="matrix(1,0,0,-1,-86.8591,789.783)"
               id="path6" />
            <path
               d="m 245.452,583.34 -0.001,-0.002 -0.011,-10.073"
               stroke="#ffffff"
               stroke-width="1.96712"
               stroke-linecap="round"
               stroke-linejoin="round"
               stroke-miterlimit="10"
               fill="none"
               transform="matrix(1,0,0,-1,-86.8591,789.783)"
               id="path7" />
            <path
               d="m 253.434,573.273 0.012,10.065 0.002,0.002"
               stroke="#ffffff"
               stroke-width="1.96712"
               stroke-linecap="round"
               stroke-linejoin="round"
               stroke-miterlimit="10"
               fill="none"
               transform="matrix(1,0,0,-1,-86.8591,789.783)"
               id="path8" />
            <path
               d="m 254.345,587.338 h -9.789 c -0.388,0 -0.704,-0.316 -0.704,-0.705 v -2.592 c 0,-0.387 0.316,-0.703 0.704,-0.703 h 9.789 c 0.389,0 0.703,0.316 0.703,0.703 v 2.592 c 0,0.389 -0.314,0.705 -0.703,0.705 z"
               stroke="#ffffff"
               stroke-width="1.96712"
               stroke-linecap="round"
               stroke-linejoin="round"
               stroke-miterlimit="10"
               fill="none"
               transform="matrix(1,0,0,-1,-86.8591,789.783)"
               id="path9" />
            <path
               d="m 253.417,573.231 c 6.59,-1.781 11.428,-7.8 11.428,-14.949 0.003,-8.557 -6.934,-15.495 -15.493,-15.49 -8.559,-0.005 -15.496,6.933 -15.496,15.49 0,7.202 4.91,13.254 11.57,14.987"
               stroke="#ffffff"
               stroke-width="1.93213"
               stroke-linecap="round"
               stroke-linejoin="round"
               stroke-miterlimit="10"
               fill="none"
               transform="matrix(1,0,0,-1,-86.8591,789.783)"
               id="path10" />
            <path
               d="m 238.957,587.798 h -9.789 c -0.389,0 -0.704,-0.316 -0.704,-0.705 v -2.59 c 0,-0.389 0.315,-0.705 0.704,-0.705 h 9.789 c 0.389,0 0.703,0.316 0.703,0.705 v 2.59 c 0,0.389 -0.314,0.705 -0.703,0.705 z"
               stroke="#ffffff"
               stroke-width="1.96712"
               stroke-linecap="round"
               stroke-linejoin="round"
               stroke-miterlimit="10"
               fill="none"
               transform="matrix(1,0,0,-1,-86.8591,789.783)"
               id="path11" />
            <path
               d="m 240.952,542.792 h -19.363 c -1.203,0 -2.048,1.184 -1.653,2.323 l 9.895,28.612 0.01,10.073"
               stroke="#ffffff"
               stroke-width="1.96712"
               stroke-linecap="round"
               stroke-linejoin="round"
               stroke-miterlimit="10"
               fill="none"
               transform="matrix(1,0,0,-1,-86.8591,789.783)"
               id="path12" />
            <path
               d="m 238.284,572.327 0.009,11.473"
               stroke="#ffffff"
               stroke-width="1.96712"
               stroke-linecap="round"
               stroke-linejoin="round"
               stroke-miterlimit="10"
               fill="none"
               transform="matrix(1,0,0,-1,-86.8591,789.783)"
               id="path13" />
            <path
               d="m 229.841,583.8 h -0.671 c -0.391,0 -0.705,0.312 -0.705,0.703 v 2.59 c 0,0.388 0.314,0.705 0.705,0.705 h 9.788 c 0.386,0 0.703,-0.317 0.703,-0.705 v -2.59 c 0,-0.391 -0.317,-0.703 -0.703,-0.703 h -0.66 -0.005 -8.448 -0.004"
               stroke="#ffffff"
               stroke-width="1.96712"
               stroke-linecap="round"
               stroke-linejoin="round"
               stroke-miterlimit="10"
               fill="none"
               transform="matrix(1,0,0,-1,-86.8591,789.783)"
               id="path14" />
            <path
               d="m 231.106,555.449 h -7.032"
               stroke="#ffffff"
               stroke-width="1.96712"
               stroke-linecap="round"
               stroke-linejoin="round"
               stroke-miterlimit="10"
               fill="none"
               transform="matrix(1,0,0,-1,-86.8591,789.783)"
               id="path15" />
            <path
               d="m 236.716,558.262 c 3.609,3.72 6.421,4.332 8.282,4.241 4.101,-0.202 6.074,-3.934 9.961,-3.55 2.484,0.244 4.328,2.03 5.423,3.352"
               stroke="#ffffff"
               stroke-width="1.96712"
               stroke-linecap="round"
               stroke-linejoin="round"
               stroke-miterlimit="10"
               fill="none"
               transform="matrix(1,0,0,-1,-86.8591,789.783)"
               id="path16" />
          </g>
        </g>
      </g>
      <g
         clip-path="url(#clip1)"
         id="g21">
        <g
           clip-path="url(#clip2)"
           id="g20">
          <g
             clip-path="url(#clip3)"
             id="g19">
            <path
               d="m 958.873,465.636 v 11.722 h -5.711 c -0.381,1.231 -0.879,2.42 -1.49,3.552 l 4.036,3.98 -8.409,8.288 -4.038,-3.98 c -1.147,0.604 -2.353,1.095 -3.602,1.469 v 5.629 h -4.803 v -2.254 h 2.516 v -5.101 l 0.859,-0.218 c 1.636,-0.416 3.198,-1.055 4.646,-1.896 l 0.762,-0.442 3.66,3.605 5.176,-5.1 -3.66,-3.608 0.451,-0.752 c 0.854,-1.425 1.501,-2.965 1.922,-4.579 l 0.222,-0.847 h 5.176 v -7.213 h -5.176 l -0.222,-0.846 c -0.421,-1.614 -1.068,-3.155 -1.922,-4.578 l -0.451,-0.754 3.66,-3.607 -5.176,-5.101 -3.66,3.606 -0.762,-0.443 c -1.448,-0.842 -3.01,-1.479 -4.646,-1.895 l -0.859,-0.219 v -5.1 h -2.516 v -2.256 h 4.803 v 5.63 c 1.249,0.375 2.455,0.866 3.602,1.468 l 4.038,-3.979 8.409,8.289 -4.036,3.982 c 0.611,1.127 1.109,2.317 1.49,3.548 h 5.711"
               fill="#f2f2f2"
               transform="matrix(1,0,0,-1.0086,-752.859,700.565)"
               id="path18" />
            <path
               d="m 945.148,471.497 c 0,5.596 -4.616,10.146 -10.292,10.146 v -2.254 c 4.413,0 8.005,-3.541 8.005,-7.892 0,-4.351 -3.592,-7.89 -8.005,-7.89 v -2.254 c 5.676,0 10.292,4.55 10.292,10.144"
               fill="#f2f2f2"
               transform="matrix(1,0,0,-1.0086,-752.859,700.565)"
               id="path19" />
          </g>
        </g>
      </g>
    </g>
  </g>
</svg>
